<?xml version="1.0" encoding="UTF-8"?>
<svg width="130px" height="133px" viewBox="0 0 130 133" version="1.1" xmlns="http://www.w3.org/2000/svg" xmlns:xlink="http://www.w3.org/1999/xlink">
    <!-- Generator: Sketch 54.1 (76490) - https://sketchapp.com -->
    <title>cloud</title>
    <desc>Created with Sketch.</desc>
    <g id="Desktop-Pattern-Library" stroke="none" stroke-width="1" fill="none" fill-rule="evenodd">
        <g id="D.Case-Study" transform="translate(-651.000000, -1745.000000)" stroke="#0B3954" stroke-width="6">
            <g id="Competitive-Analysis" transform="translate(-3.000000, 1242.258319)">
                <g id="cloud" transform="translate(657.441713, 506.000000)">
                    <path d="M36.4391318,83.7110294 L88.9392789,83.7110294 C95.5573065,81.6609231 99.0440813,77.6538083 99.3996031,71.689685 C99.9328859,62.7435002 93.1231568,56.1873997 87.2866191,56.8448358 C90.6572256,51.9267347 82.974622,35.8261604 67.9193675,35.8261604 C57.8825311,35.8261604 51.7981141,39.9010993 49.6661162,48.0509772 C48.433303,47.0695949 46.6934825,46.3655422 44.4466549,45.9388193 C39.8323614,45.0624615 33.2310032,48.5647077 33.2310032,56.8448358 C25.9194911,58.7940085 22.7486517,63.7422916 23.7184849,71.689685 C23.9944985,75.019474 25.2158753,77.7276625 27.3826152,79.8142505 C29.5493551,81.9008385 32.568194,83.1997648 36.4391318,83.7110294 Z" id="Path-5"></path>
                    <ellipse id="Oval" cx="61.7582725" cy="63.0439109" rx="61.7582725" ry="62.7975787"></ellipse>
                </g>
            </g>
        </g>
    </g>
</svg>