<?xml version="1.0" encoding="UTF-8"?>
<svg width="341px" height="349px" viewBox="0 0 341 349" version="1.1" xmlns="http://www.w3.org/2000/svg" xmlns:xlink="http://www.w3.org/1999/xlink">
    <!-- Generator: Sketch 54.1 (76490) - https://sketchapp.com -->
    <title>sticky3</title>
    <desc>Created with Sketch.</desc>
    <defs>
        <polygon id="path-1" points="47.1881313 46.4199338 292.126973 49.8672648 295.574304 298.472063 50.6354622 295.024732"></polygon>
        <filter x="-2.8%" y="-2.0%" width="105.6%" height="105.6%" filterUnits="objectBoundingBox" id="filter-2">
            <feOffset dx="0" dy="2" in="SourceAlpha" result="shadowOffsetOuter1"></feOffset>
            <feGaussianBlur stdDeviation="2" in="shadowOffsetOuter1" result="shadowBlurOuter1"></feGaussianBlur>
            <feColorMatrix values="0 0 0 0 0   0 0 0 0 0   0 0 0 0 0  0 0 0 0.5 0" type="matrix" in="shadowBlurOuter1"></feColorMatrix>
        </filter>
    </defs>
    <g id="Portfolio-Images" stroke="none" stroke-width="1" fill="none" fill-rule="evenodd">
        <g id="Artboard" transform="translate(-625.000000, 0.000000)">
            <g id="User-Stories">
                <g id="sticky3" transform="translate(624.622201, 0.000000)">
                    <g id="Rectangle" transform="translate(171.381218, 172.445999) rotate(31.000000) translate(-171.381218, -172.445999) ">
                        <use fill="black" fill-opacity="1" filter="url(#filter-2)" xlink:href="#path-1"></use>
                        <use fill="#FFFFFF" fill-rule="evenodd" xlink:href="#path-1"></use>
                    </g>
                    <path d="M105.184654,154.731683 C103.164644,154.731683 101.409661,154.291688 99.9196539,153.411683 C98.4296465,152.531679 97.2846579,151.266692 96.4846539,149.616683 C95.6846499,147.966675 95.2846539,146.021695 95.2846539,143.781683 C95.2846539,141.541672 95.6846499,139.606692 96.4846539,137.976683 C97.2846579,136.346675 98.4296465,135.091688 99.9196539,134.211683 C101.409661,133.331679 103.164644,132.891683 105.184654,132.891683 C106.664661,132.891683 108.019648,133.116681 109.249654,133.566683 C110.47966,134.016686 111.544649,134.691679 112.444654,135.591683 L111.514654,137.481683 C110.494649,136.601679 109.489659,135.971685 108.499654,135.591683 C107.509649,135.211682 106.41466,135.021683 105.214654,135.021683 C102.874642,135.021683 101.05966,135.781676 99.7696539,137.301683 C98.4796475,138.821691 97.8346539,140.981669 97.8346539,143.781683 C97.8346539,146.601698 98.4746475,148.776676 99.7546539,150.306683 C101.03466,151.836691 102.854642,152.601683 105.214654,152.601683 C106.41466,152.601683 107.509649,152.411685 108.499654,152.031683 C109.489659,151.651682 110.494649,151.021688 111.514654,150.141683 L112.444654,152.031683 C111.544649,152.931688 110.47966,153.606681 109.249654,154.056683 C108.019648,154.506686 106.664661,154.731683 105.184654,154.731683 Z M123.304654,139.041683 C123.804656,139.041683 124.264652,139.101683 124.684654,139.221683 L124.624654,141.441683 C124.164652,141.281683 123.634657,141.201683 123.034654,141.201683 C121.574647,141.201683 120.489657,141.656679 119.779654,142.566683 C119.06965,143.476688 118.714654,144.581677 118.714654,145.881683 L118.714654,154.491683 L116.284654,154.491683 L116.284654,143.631683 C116.284654,142.071676 116.204655,140.66169 116.044654,139.401683 L118.354654,139.401683 L118.594654,142.191683 C118.974656,141.171678 119.58465,140.391686 120.424654,139.851683 C121.264658,139.311681 122.224649,139.041683 123.304654,139.041683 Z M139.774654,146.871683 L128.704654,146.871683 C128.724654,148.791693 129.16965,150.241679 130.039654,151.221683 C130.909658,152.201688 132.174646,152.691683 133.834654,152.691683 C135.594663,152.691683 137.214647,152.101689 138.694654,150.921683 L139.504654,152.691683 C138.844651,153.311687 137.999659,153.801682 136.969654,154.161683 C135.939649,154.521685 134.884659,154.701683 133.804654,154.701683 C131.444642,154.701683 129.594661,154.00669 128.254654,152.616683 C126.914647,151.226677 126.244654,149.321696 126.244654,146.901683 C126.244654,145.361676 126.544651,143.996689 127.144654,142.806683 C127.744657,141.616678 128.584649,140.691687 129.664654,140.031683 C130.744659,139.37168 131.974647,139.041683 133.354654,139.041683 C135.354664,139.041683 136.924648,139.696677 138.064654,141.006683 C139.20466,142.31669 139.774654,144.121672 139.774654,146.421683 L139.774654,146.871683 Z M133.384654,140.931683 C132.124648,140.931683 131.099658,141.31168 130.309654,142.071683 C129.51965,142.831687 129.014655,143.901677 128.794654,145.281683 L137.584654,145.281683 C137.464653,143.861676 137.049657,142.781687 136.339654,142.041683 C135.62965,141.30168 134.64466,140.931683 133.384654,140.931683 Z M156.754654,139.401683 L156.754654,154.491683 L154.354654,154.491683 L154.354654,151.761683 C153.914652,152.701688 153.249658,153.426681 152.359654,153.936683 C151.469649,154.446686 150.43466,154.701683 149.254654,154.701683 C147.914647,154.701683 146.739659,154.381687 145.729654,153.741683 C144.719649,153.10168 143.939657,152.196689 143.389654,151.026683 C142.839651,149.856678 142.564654,148.491691 142.564654,146.931683 C142.564654,145.371676 142.844651,143.996689 143.404654,142.806683 C143.964657,141.616678 144.749649,140.691687 145.759654,140.031683 C146.769659,139.37168 147.934647,139.041683 149.254654,139.041683 C150.43466,139.041683 151.46465,139.301681 152.344654,139.821683 C153.224658,140.341686 153.894652,141.071679 154.354654,142.011683 L154.354654,139.401683 L156.754654,139.401683 Z M149.734654,152.691683 C151.214661,152.691683 152.35465,152.186689 153.154654,151.176683 C153.954658,150.166678 154.354654,148.731693 154.354654,146.871683 C154.354654,145.011674 153.954658,143.581688 153.154654,142.581683 C152.35465,141.581678 151.214661,141.081683 149.734654,141.081683 C148.254647,141.081683 147.099658,141.596678 146.269654,142.626683 C145.43965,143.656689 145.024654,145.091674 145.024654,146.931683 C145.024654,148.771693 145.43465,150.191678 146.254654,151.191683 C147.074658,152.191688 148.234646,152.691683 149.734654,152.691683 Z M164.704654,141.321683 L164.704654,149.571683 C164.704654,150.691689 164.934652,151.476681 165.394654,151.926683 C165.854656,152.376686 166.50465,152.601683 167.344654,152.601683 C167.904657,152.601683 168.444651,152.511684 168.964654,152.331683 L168.964654,154.401683 C168.344651,154.601684 167.644658,154.701683 166.864654,154.701683 C165.424647,154.701683 164.299658,154.296688 163.489654,153.486683 C162.67965,152.676679 162.274654,151.481691 162.274654,149.901683 L162.274654,141.321683 L159.334654,141.321683 L159.334654,139.401683 L162.274654,139.401683 L162.274654,135.531683 L164.704654,134.661683 L164.704654,139.401683 L169.024654,139.401683 L169.024654,141.321683 L164.704654,141.321683 Z M184.594654,146.871683 L173.524654,146.871683 C173.544654,148.791693 173.98965,150.241679 174.859654,151.221683 C175.729658,152.201688 176.994646,152.691683 178.654654,152.691683 C180.414663,152.691683 182.034647,152.101689 183.514654,150.921683 L184.324654,152.691683 C183.664651,153.311687 182.819659,153.801682 181.789654,154.161683 C180.759649,154.521685 179.704659,154.701683 178.624654,154.701683 C176.264642,154.701683 174.414661,154.00669 173.074654,152.616683 C171.734647,151.226677 171.064654,149.321696 171.064654,146.901683 C171.064654,145.361676 171.364651,143.996689 171.964654,142.806683 C172.564657,141.616678 173.404649,140.691687 174.484654,140.031683 C175.564659,139.37168 176.794647,139.041683 178.174654,139.041683 C180.174664,139.041683 181.744648,139.696677 182.884654,141.006683 C184.02466,142.31669 184.594654,144.121672 184.594654,146.421683 L184.594654,146.871683 Z M178.204654,140.931683 C176.944648,140.931683 175.919658,141.31168 175.129654,142.071683 C174.33965,142.831687 173.834655,143.901677 173.614654,145.281683 L182.404654,145.281683 C182.284653,143.861676 181.869657,142.781687 181.159654,142.041683 C180.44965,141.30168 179.46466,140.931683 178.204654,140.931683 Z M212.854654,139.041683 C216.194671,139.041683 217.864654,141.031664 217.864654,145.011683 L217.864654,154.491683 L215.434654,154.491683 L215.434654,145.131683 C215.434654,143.711676 215.189656,142.681687 214.699654,142.041683 C214.209651,141.40168 213.414659,141.081683 212.314654,141.081683 C211.034648,141.081683 210.034658,141.511679 209.314654,142.371683 C208.59465,143.231688 208.234654,144.401676 208.234654,145.881683 L208.234654,154.491683 L205.804654,154.491683 L205.804654,145.131683 C205.804654,143.731676 205.554656,142.706687 205.054654,142.056683 C204.554651,141.40668 203.754659,141.081683 202.654654,141.081683 C201.374648,141.081683 200.369658,141.511679 199.639654,142.371683 C198.90965,143.231688 198.544654,144.401676 198.544654,145.881683 L198.544654,154.491683 L196.114654,154.491683 L196.114654,143.631683 C196.114654,142.071676 196.034655,140.66169 195.874654,139.401683 L198.184654,139.401683 L198.424654,142.041683 C198.844656,141.081679 199.46965,140.341686 200.299654,139.821683 C201.129658,139.301681 202.094648,139.041683 203.194654,139.041683 C204.39466,139.041683 205.37465,139.281681 206.134654,139.761683 C206.894658,140.241686 207.454652,140.981678 207.814654,141.981683 C208.274656,141.081679 208.949649,140.366686 209.839654,139.836683 C210.729658,139.306681 211.734648,139.041683 212.854654,139.041683 Z M235.744654,139.401683 L228.694654,155.871683 C227.95465,157.591692 227.02466,158.851679 225.904654,159.651683 C224.784648,160.451687 223.404662,161.001682 221.764654,161.301683 L221.254654,159.411683 C222.674661,159.091682 223.74965,158.666686 224.479654,158.136683 C225.209658,157.606681 225.814652,156.791689 226.294654,155.691683 L226.894654,154.341683 L220.504654,139.401683 L223.054654,139.401683 L228.154654,151.851683 L233.314654,139.401683 L235.744654,139.401683 Z M102.004654,192.701683 C100.584647,192.701683 99.3346593,192.381687 98.2546539,191.741683 C97.1746485,191.10168 96.3396569,190.191689 95.7496539,189.011683 C95.159651,187.831678 94.8646539,186.451691 94.8646539,184.871683 C94.8646539,183.291676 95.159651,181.911689 95.7496539,180.731683 C96.3396569,179.551678 97.1746485,178.641687 98.2546539,178.001683 C99.3346593,177.36168 100.584647,177.041683 102.004654,177.041683 C103.424661,177.041683 104.674649,177.36168 105.754654,178.001683 C106.834659,178.641687 107.669651,179.551678 108.259654,180.731683 C108.849657,181.911689 109.144654,183.291676 109.144654,184.871683 C109.144654,186.451691 108.849657,187.831678 108.259654,189.011683 C107.669651,190.191689 106.834659,191.10168 105.754654,191.741683 C104.674649,192.381687 103.424661,192.701683 102.004654,192.701683 Z M102.004654,190.691683 C103.504661,190.691683 104.65465,190.196688 105.454654,189.206683 C106.254658,188.216679 106.654654,186.771693 106.654654,184.871683 C106.654654,183.031674 106.244658,181.606689 105.424654,180.596683 C104.60465,179.586678 103.464661,179.081683 102.004654,179.081683 C100.524647,179.081683 99.374658,179.586678 98.5546539,180.596683 C97.7346498,181.606689 97.3246539,183.031674 97.3246539,184.871683 C97.3246539,186.771693 97.7296499,188.216679 98.5396539,189.206683 C99.349658,190.196688 100.504646,190.691683 102.004654,190.691683 Z M133.444654,177.401683 L135.844654,177.401683 L130.264654,192.491683 L127.924654,192.491683 L123.604654,180.701683 L119.314654,192.491683 L116.974654,192.491683 L111.394654,177.401683 L113.944654,177.401683 L118.204654,189.581683 L122.614654,177.401683 L124.744654,177.401683 L129.094654,189.611683 L133.444654,177.401683 Z M146.524654,177.041683 C150.144672,177.041683 151.954654,179.031664 151.954654,183.011683 L151.954654,192.491683 L149.524654,192.491683 L149.524654,183.131683 C149.524654,181.731676 149.244657,180.706687 148.684654,180.056683 C148.124651,179.40668 147.24466,179.081683 146.044654,179.081683 C144.644647,179.081683 143.524658,179.511679 142.684654,180.371683 C141.84465,181.231688 141.424654,182.391676 141.424654,183.851683 L141.424654,192.491683 L138.994654,192.491683 L138.994654,181.631683 C138.994654,180.071676 138.914655,178.66169 138.754654,177.401683 L141.064654,177.401683 L141.304654,180.101683 C141.764656,179.121679 142.454649,178.366686 143.374654,177.836683 C144.294659,177.306681 145.344648,177.041683 146.524654,177.041683 Z M177.634654,177.401683 L170.584654,193.871683 C169.84465,195.591692 168.91466,196.851679 167.794654,197.651683 C166.674648,198.451687 165.294662,199.001682 163.654654,199.301683 L163.144654,197.411683 C164.564661,197.091682 165.63965,196.666686 166.369654,196.136683 C167.099658,195.606681 167.704652,194.791689 168.184654,193.691683 L168.784654,192.341683 L162.394654,177.401683 L164.944654,177.401683 L170.044654,189.851683 L175.204654,177.401683 L177.634654,177.401683 Z M186.544654,192.701683 C185.124647,192.701683 183.874659,192.381687 182.794654,191.741683 C181.714649,191.10168 180.879657,190.191689 180.289654,189.011683 C179.699651,187.831678 179.404654,186.451691 179.404654,184.871683 C179.404654,183.291676 179.699651,181.911689 180.289654,180.731683 C180.879657,179.551678 181.714649,178.641687 182.794654,178.001683 C183.874659,177.36168 185.124647,177.041683 186.544654,177.041683 C187.964661,177.041683 189.214649,177.36168 190.294654,178.001683 C191.374659,178.641687 192.209651,179.551678 192.799654,180.731683 C193.389657,181.911689 193.684654,183.291676 193.684654,184.871683 C193.684654,186.451691 193.389657,187.831678 192.799654,189.011683 C192.209651,190.191689 191.374659,191.10168 190.294654,191.741683 C189.214649,192.381687 187.964661,192.701683 186.544654,192.701683 Z M186.544654,190.691683 C188.044661,190.691683 189.19465,190.196688 189.994654,189.206683 C190.794658,188.216679 191.194654,186.771693 191.194654,184.871683 C191.194654,183.031674 190.784658,181.606689 189.964654,180.596683 C189.14465,179.586678 188.004661,179.081683 186.544654,179.081683 C185.064647,179.081683 183.914658,179.586678 183.094654,180.596683 C182.27465,181.606689 181.864654,183.031674 181.864654,184.871683 C181.864654,186.771693 182.26965,188.216679 183.079654,189.206683 C183.889658,190.196688 185.044646,190.691683 186.544654,190.691683 Z M210.904654,177.401683 L210.904654,192.371683 C210.904654,194.611695 210.32966,196.306678 209.179654,197.456683 C208.029648,198.606689 206.334665,199.181683 204.094654,199.181683 C201.794642,199.181683 199.814662,198.661689 198.154654,197.621683 L198.574654,195.641683 C199.534659,196.181686 200.43965,196.571682 201.289654,196.811683 C202.139658,197.051685 203.074649,197.171683 204.094654,197.171683 C205.554661,197.171683 206.65465,196.786687 207.394654,196.016683 C208.134658,195.24668 208.504654,194.101691 208.504654,192.581683 L208.504654,189.011683 C208.044652,189.971688 207.369658,190.716681 206.479654,191.246683 C205.589649,191.776686 204.53466,192.041683 203.314654,192.041683 C201.994647,192.041683 200.819659,191.731687 199.789654,191.111683 C198.759649,190.49168 197.964657,189.611689 197.404654,188.471683 C196.844651,187.331678 196.564654,186.021691 196.564654,184.541683 C196.564654,183.061676 196.844651,181.751689 197.404654,180.611683 C197.964657,179.471678 198.759649,178.591687 199.789654,177.971683 C200.819659,177.35168 201.994647,177.041683 203.314654,177.041683 C204.51466,177.041683 205.559649,177.301681 206.449654,177.821683 C207.339658,178.341686 208.014652,179.071679 208.474654,180.011683 L208.474654,177.401683 L210.904654,177.401683 Z M203.794654,190.001683 C205.254661,190.001683 206.39965,189.516688 207.229654,188.546683 C208.059658,187.576679 208.474654,186.241692 208.474654,184.541683 C208.474654,182.841675 208.059658,181.506688 207.229654,180.536683 C206.39965,179.566679 205.254661,179.081683 203.794654,179.081683 C202.314647,179.081683 201.149658,179.566679 200.299654,180.536683 C199.44965,181.506688 199.024654,182.841675 199.024654,184.541683 C199.024654,186.241692 199.44965,187.576679 200.299654,188.546683 C201.149658,189.516688 202.314647,190.001683 203.794654,190.001683 Z M228.874654,177.401683 L228.874654,192.491683 L226.474654,192.491683 L226.474654,189.761683 C226.034652,190.701688 225.369658,191.426681 224.479654,191.936683 C223.589649,192.446686 222.55466,192.701683 221.374654,192.701683 C220.034647,192.701683 218.859659,192.381687 217.849654,191.741683 C216.839649,191.10168 216.059657,190.196689 215.509654,189.026683 C214.959651,187.856678 214.684654,186.491691 214.684654,184.931683 C214.684654,183.371676 214.964651,181.996689 215.524654,180.806683 C216.084657,179.616678 216.869649,178.691687 217.879654,178.031683 C218.889659,177.37168 220.054647,177.041683 221.374654,177.041683 C222.55466,177.041683 223.58465,177.301681 224.464654,177.821683 C225.344658,178.341686 226.014652,179.071679 226.474654,180.011683 L226.474654,177.401683 L228.874654,177.401683 Z M221.854654,190.691683 C223.334661,190.691683 224.47465,190.186689 225.274654,189.176683 C226.074658,188.166678 226.474654,186.731693 226.474654,184.871683 C226.474654,183.011674 226.074658,181.581688 225.274654,180.581683 C224.47465,179.581678 223.334661,179.081683 221.854654,179.081683 C220.374647,179.081683 219.219658,179.596678 218.389654,180.626683 C217.55965,181.656689 217.144654,183.091674 217.144654,184.931683 C217.144654,186.771693 217.55465,188.191678 218.374654,189.191683 C219.194658,190.191688 220.354646,190.691683 221.854654,190.691683 Z M100.864654,230.701683 C98.3246412,230.701683 96.3146613,230.05169 94.8346539,228.751683 L95.6446539,226.951683 C96.464658,227.591687 97.2946497,228.051682 98.1346539,228.331683 C98.9746581,228.611685 99.9146487,228.751683 100.954654,228.751683 C102.09466,228.751683 102.959651,228.556685 103.549654,228.166683 C104.139657,227.776682 104.434654,227.211687 104.434654,226.471683 C104.434654,225.87168 104.234656,225.391685 103.834654,225.031683 C103.434652,224.671682 102.774659,224.391684 101.854654,224.191683 L99.3046539,223.591683 C98.0446476,223.311682 97.0696574,222.811687 96.3796539,222.091683 C95.6896505,221.37168 95.3446539,220.511688 95.3446539,219.511683 C95.3446539,218.191677 95.8746486,217.116688 96.9346539,216.286683 C97.9946592,215.456679 99.3946452,215.041683 101.134654,215.041683 C102.194659,215.041683 103.194649,215.211682 104.134654,215.551683 C105.074659,215.891685 105.864651,216.38168 106.504654,217.021683 L105.694654,218.791683 C104.274647,217.611678 102.754662,217.021683 101.134654,217.021683 C100.054649,217.021683 99.2196569,217.226681 98.6296539,217.636683 C98.039651,218.046686 97.7446539,218.62168 97.7446539,219.361683 C97.7446539,219.981687 97.9296521,220.471682 98.2996539,220.831683 C98.6696558,221.191685 99.2646498,221.471682 100.084654,221.671683 L102.634654,222.301683 C104.034661,222.621685 105.074651,223.11668 105.754654,223.786683 C106.434657,224.456687 106.774654,225.331678 106.774654,226.411683 C106.774654,227.71169 106.244659,228.75168 105.184654,229.531683 C104.124649,230.311687 102.684663,230.701683 100.864654,230.701683 Z M123.274654,222.871683 L112.204654,222.871683 C112.224654,224.791693 112.66965,226.241679 113.539654,227.221683 C114.409658,228.201688 115.674646,228.691683 117.334654,228.691683 C119.094663,228.691683 120.714647,228.101689 122.194654,226.921683 L123.004654,228.691683 C122.344651,229.311687 121.499659,229.801682 120.469654,230.161683 C119.439649,230.521685 118.384659,230.701683 117.304654,230.701683 C114.944642,230.701683 113.094661,230.00669 111.754654,228.616683 C110.414647,227.226677 109.744654,225.321696 109.744654,222.901683 C109.744654,221.361676 110.044651,219.996689 110.644654,218.806683 C111.244657,217.616678 112.084649,216.691687 113.164654,216.031683 C114.244659,215.37168 115.474647,215.041683 116.854654,215.041683 C118.854664,215.041683 120.424648,215.696677 121.564654,217.006683 C122.70466,218.31669 123.274654,220.121672 123.274654,222.421683 L123.274654,222.871683 Z M116.884654,216.931683 C115.624648,216.931683 114.599658,217.31168 113.809654,218.071683 C113.01965,218.831687 112.514655,219.901677 112.294654,221.281683 L121.084654,221.281683 C120.964653,219.861676 120.549657,218.781687 119.839654,218.041683 C119.12965,217.30168 118.14466,216.931683 116.884654,216.931683 Z M140.494654,215.401683 C140.334653,216.66169 140.254654,218.071676 140.254654,219.631683 L140.254654,236.971683 L137.824654,236.971683 L137.824654,227.821683 C137.384652,228.741688 136.724658,229.451681 135.844654,229.951683 C134.96465,230.451686 133.93466,230.701683 132.754654,230.701683 C131.414647,230.701683 130.239659,230.381687 129.229654,229.741683 C128.219649,229.10168 127.439657,228.196689 126.889654,227.026683 C126.339651,225.856678 126.064654,224.491691 126.064654,222.931683 C126.064654,221.371676 126.344651,219.996689 126.904654,218.806683 C127.464657,217.616678 128.249649,216.691687 129.259654,216.031683 C130.269659,215.37168 131.434647,215.041683 132.754654,215.041683 C133.97466,215.041683 135.034649,215.316681 135.934654,215.866683 C136.834658,216.416686 137.504652,217.201678 137.944654,218.221683 L138.244654,215.401683 L140.494654,215.401683 Z M133.234654,228.691683 C134.714661,228.691683 135.85465,228.186689 136.654654,227.176683 C137.454658,226.166678 137.854654,224.731693 137.854654,222.871683 C137.854654,221.011674 137.454658,219.581688 136.654654,218.581683 C135.85465,217.581678 134.714661,217.081683 133.234654,217.081683 C131.754647,217.081683 130.599658,217.596678 129.769654,218.626683 C128.93965,219.656689 128.524654,221.091674 128.524654,222.931683 C128.524654,224.771693 128.93465,226.191678 129.754654,227.191683 C130.574658,228.191688 131.734646,228.691683 133.234654,228.691683 Z M157.594654,215.401683 L157.594654,230.491683 L155.224654,230.491683 L155.224654,227.881683 C154.744652,228.801688 154.074658,229.501681 153.214654,229.981683 C152.35465,230.461686 151.384659,230.701683 150.304654,230.701683 C148.524645,230.701683 147.174659,230.201688 146.254654,229.201683 C145.334649,228.201678 144.874654,226.721693 144.874654,224.761683 L144.874654,215.401683 L147.304654,215.401683 L147.304654,224.701683 C147.304654,226.06169 147.584651,227.06168 148.144654,227.701683 C148.704657,228.341687 149.554648,228.661683 150.694654,228.661683 C152.034661,228.661683 153.11465,228.226688 153.934654,227.356683 C154.754658,226.486679 155.164654,225.341691 155.164654,223.921683 L155.164654,215.401683 L157.594654,215.401683 Z M174.904654,222.871683 L163.834654,222.871683 C163.854654,224.791693 164.29965,226.241679 165.169654,227.221683 C166.039658,228.201688 167.304646,228.691683 168.964654,228.691683 C170.724663,228.691683 172.344647,228.101689 173.824654,226.921683 L174.634654,228.691683 C173.974651,229.311687 173.129659,229.801682 172.099654,230.161683 C171.069649,230.521685 170.014659,230.701683 168.934654,230.701683 C166.574642,230.701683 164.724661,230.00669 163.384654,228.616683 C162.044647,227.226677 161.374654,225.321696 161.374654,222.901683 C161.374654,221.361676 161.674651,219.996689 162.274654,218.806683 C162.874657,217.616678 163.714649,216.691687 164.794654,216.031683 C165.874659,215.37168 167.104647,215.041683 168.484654,215.041683 C170.484664,215.041683 172.054648,215.696677 173.194654,217.006683 C174.33466,218.31669 174.904654,220.121672 174.904654,222.421683 L174.904654,222.871683 Z M168.514654,216.931683 C167.254648,216.931683 166.229658,217.31168 165.439654,218.071683 C164.64965,218.831687 164.144655,219.901677 163.924654,221.281683 L172.714654,221.281683 C172.594653,219.861676 172.179657,218.781687 171.469654,218.041683 C170.75965,217.30168 169.77466,216.931683 168.514654,216.931683 Z M186.124654,215.041683 C189.744672,215.041683 191.554654,217.031664 191.554654,221.011683 L191.554654,230.491683 L189.124654,230.491683 L189.124654,221.131683 C189.124654,219.731676 188.844657,218.706687 188.284654,218.056683 C187.724651,217.40668 186.84466,217.081683 185.644654,217.081683 C184.244647,217.081683 183.124658,217.511679 182.284654,218.371683 C181.44465,219.231688 181.024654,220.391676 181.024654,221.851683 L181.024654,230.491683 L178.594654,230.491683 L178.594654,219.631683 C178.594654,218.071676 178.514655,216.66169 178.354654,215.401683 L180.664654,215.401683 L180.904654,218.101683 C181.364656,217.121679 182.054649,216.366686 182.974654,215.836683 C183.894659,215.306681 184.944648,215.041683 186.124654,215.041683 Z M202.474654,230.701683 C201.014647,230.701683 199.739659,230.381687 198.649654,229.741683 C197.559648,229.10168 196.719657,228.196689 196.129654,227.026683 C195.539651,225.856678 195.244654,224.491691 195.244654,222.931683 C195.244654,221.371676 195.544651,219.996689 196.144654,218.806683 C196.744657,217.616678 197.599648,216.691687 198.709654,216.031683 C199.819659,215.37168 201.114647,215.041683 202.594654,215.041683 C203.614659,215.041683 204.599649,215.216682 205.549654,215.566683 C206.499659,215.916685 207.284651,216.40168 207.904654,217.021683 L207.094654,218.821683 C206.33465,218.22168 205.599657,217.781685 204.889654,217.501683 C204.17965,217.221682 203.454658,217.081683 202.714654,217.081683 C201.174646,217.081683 199.964658,217.596678 199.084654,218.626683 C198.20465,219.656689 197.764654,221.091674 197.764654,222.931683 C197.764654,224.751693 198.19965,226.166678 199.069654,227.176683 C199.939658,228.186689 201.154646,228.691683 202.714654,228.691683 C203.454658,228.691683 204.17965,228.551685 204.889654,228.271683 C205.599657,227.991682 206.33465,227.551686 207.094654,226.951683 L207.904654,228.751683 C207.264651,229.351686 206.459659,229.826682 205.489654,230.176683 C204.519649,230.526685 203.514659,230.701683 202.474654,230.701683 Z M223.624654,222.871683 L212.554654,222.871683 C212.574654,224.791693 213.01965,226.241679 213.889654,227.221683 C214.759658,228.201688 216.024646,228.691683 217.684654,228.691683 C219.444663,228.691683 221.064647,228.101689 222.544654,226.921683 L223.354654,228.691683 C222.694651,229.311687 221.849659,229.801682 220.819654,230.161683 C219.789649,230.521685 218.734659,230.701683 217.654654,230.701683 C215.294642,230.701683 213.444661,230.00669 212.104654,228.616683 C210.764647,227.226677 210.094654,225.321696 210.094654,222.901683 C210.094654,221.361676 210.394651,219.996689 210.994654,218.806683 C211.594657,217.616678 212.434649,216.691687 213.514654,216.031683 C214.594659,215.37168 215.824647,215.041683 217.204654,215.041683 C219.204664,215.041683 220.774648,215.696677 221.914654,217.006683 C223.05466,218.31669 223.624654,220.121672 223.624654,222.421683 L223.624654,222.871683 Z M217.234654,216.931683 C215.974648,216.931683 214.949658,217.31168 214.159654,218.071683 C213.36965,218.831687 212.864655,219.901677 212.644654,221.281683 L221.434654,221.281683 C221.314653,219.861676 220.899657,218.781687 220.189654,218.041683 C219.47965,217.30168 218.49466,216.931683 217.234654,216.931683 Z M232.414654,230.701683 C229.874641,230.701683 227.864661,230.05169 226.384654,228.751683 L227.194654,226.951683 C228.014658,227.591687 228.84465,228.051682 229.684654,228.331683 C230.524658,228.611685 231.464649,228.751683 232.504654,228.751683 C233.64466,228.751683 234.509651,228.556685 235.099654,228.166683 C235.689657,227.776682 235.984654,227.211687 235.984654,226.471683 C235.984654,225.87168 235.784656,225.391685 235.384654,225.031683 C234.984652,224.671682 234.324659,224.391684 233.404654,224.191683 L230.854654,223.591683 C229.594648,223.311682 228.619657,222.811687 227.929654,222.091683 C227.23965,221.37168 226.894654,220.511688 226.894654,219.511683 C226.894654,218.191677 227.424649,217.116688 228.484654,216.286683 C229.544659,215.456679 230.944645,215.041683 232.684654,215.041683 C233.744659,215.041683 234.744649,215.211682 235.684654,215.551683 C236.624659,215.891685 237.414651,216.38168 238.054654,217.021683 L237.244654,218.791683 C235.824647,217.611678 234.304662,217.021683 232.684654,217.021683 C231.604649,217.021683 230.769657,217.226681 230.179654,217.636683 C229.589651,218.046686 229.294654,218.62168 229.294654,219.361683 C229.294654,219.981687 229.479652,220.471682 229.849654,220.831683 C230.219656,221.191685 230.81465,221.471682 231.634654,221.671683 L234.184654,222.301683 C235.584661,222.621685 236.624651,223.11668 237.304654,223.786683 C237.984657,224.456687 238.324654,225.331678 238.324654,226.411683 C238.324654,227.71169 237.794659,228.75168 236.734654,229.531683 C235.674649,230.311687 234.234663,230.701683 232.414654,230.701683 Z M241.774654,227.401683 L244.864654,227.401683 L244.864654,230.491683 L241.774654,230.491683 L241.774654,227.401683 Z" id="Createmyownyogasequences." fill="#00120B" fill-rule="nonzero" transform="translate(169.849654, 184.931683) rotate(31.000000) translate(-169.849654, -184.931683) "></path>
                </g>
            </g>
        </g>
    </g>
</svg>