<?xml version="1.0" encoding="UTF-8"?>
<svg width="305px" height="310px" viewBox="0 0 305 310" version="1.1" xmlns="http://www.w3.org/2000/svg" xmlns:xlink="http://www.w3.org/1999/xlink">
    <!-- Generator: Sketch 54.1 (76490) - https://sketchapp.com -->
    <title>sticky1</title>
    <desc>Created with Sketch.</desc>
    <defs>
        <polygon id="path-1" points="30.5158806 29.879558 274.179301 28.0004991 272.300242 278.173171 28.6368217 280.05223"></polygon>
        <filter x="-2.9%" y="-2.0%" width="105.7%" height="105.6%" filterUnits="objectBoundingBox" id="filter-2">
            <feOffset dx="0" dy="2" in="SourceAlpha" result="shadowOffsetOuter1"></feOffset>
            <feGaussianBlur stdDeviation="2" in="shadowOffsetOuter1" result="shadowBlurOuter1"></feGaussianBlur>
            <feColorMatrix values="0 0 0 0 0   0 0 0 0 0   0 0 0 0 0  0 0 0 0.5 0" type="matrix" in="shadowBlurOuter1"></feColorMatrix>
        </filter>
    </defs>
    <g id="Portfolio-Images" stroke="none" stroke-width="1" fill="none" fill-rule="evenodd">
        <g id="Artboard" transform="translate(0.000000, -39.000000)">
            <g id="User-Stories">
                <g id="sticky1" transform="translate(0.000000, 40.252971)">
                    <g id="Rectangle" transform="translate(151.408061, 154.026364) rotate(-15.000000) translate(-151.408061, -154.026364) ">
                        <use fill="black" fill-opacity="1" filter="url(#filter-2)" xlink:href="#path-1"></use>
                        <use fill="#FFFFFF" fill-rule="evenodd" xlink:href="#path-1"></use>
                    </g>
                    <path d="M65.1162722,127.266364 C61.7762555,127.266364 59.1162821,126.366373 57.1362722,124.566364 L58.0662722,122.676364 C59.1262775,123.576369 60.2062667,124.216363 61.3062722,124.596364 C62.4062777,124.976366 63.6862649,125.166364 65.1462722,125.166364 C66.8662808,125.166364 68.1912675,124.831368 69.1212722,124.161364 C70.0512768,123.491361 70.5162722,122.546371 70.5162722,121.326364 C70.5162722,120.606361 70.2912744,120.021367 69.8412722,119.571364 C69.3912699,119.121362 68.8012758,118.766366 68.0712722,118.506364 C67.3412685,118.246363 66.3662783,117.976366 65.1462722,117.696364 C63.506264,117.336363 62.1562775,116.946367 61.0962722,116.526364 C60.0362669,116.106362 59.1762755,115.501368 58.5162722,114.711364 C57.8562689,113.92136 57.5262722,112.886371 57.5262722,111.606364 C57.5262722,110.386358 57.846269,109.311369 58.4862722,108.381364 C59.1262754,107.45136 60.0312663,106.726367 61.2012722,106.206364 C62.371278,105.686362 63.7362644,105.426364 65.2962722,105.426364 C66.7762796,105.426364 68.1562658,105.656362 69.4362722,106.116364 C70.7162786,106.576367 71.7962678,107.24636 72.6762722,108.126364 L71.7162722,110.016364 C70.7162672,109.15636 69.7012773,108.526366 68.6712722,108.126364 C67.641267,107.726362 66.5162783,107.526364 65.2962722,107.526364 C63.6362639,107.526364 62.3362769,107.881361 61.3962722,108.591364 C60.4562675,109.301368 59.9862722,110.276358 59.9862722,111.516364 C59.9862722,112.59637 60.3962681,113.406362 61.2162722,113.946364 C62.0362763,114.486367 63.2962637,114.956362 64.9962722,115.356364 C66.8362814,115.796367 68.2812669,116.201363 69.3312722,116.571364 C70.3812774,116.941366 71.2562687,117.501361 71.9562722,118.251364 C72.6562757,119.001368 73.0062722,119.996358 73.0062722,121.236364 C73.0062722,122.43637 72.6862754,123.49136 72.0462722,124.401364 C71.406269,125.311369 70.4912781,126.016362 69.3012722,126.516364 C68.1112662,127.016367 66.7162802,127.266364 65.1162722,127.266364 Z M90.0162722,111.936364 L90.0162722,127.026364 L87.6162722,127.026364 L87.6162722,124.296364 C87.17627,125.236369 86.5112766,125.961362 85.6212722,126.471364 C84.7312677,126.981367 83.6962781,127.236364 82.5162722,127.236364 C81.1762655,127.236364 80.0012772,126.916368 78.9912722,126.276364 C77.9812671,125.636361 77.2012749,124.73137 76.6512722,123.561364 C76.1012694,122.391359 75.8262722,121.026372 75.8262722,119.466364 C75.8262722,117.906357 76.1062694,116.53137 76.6662722,115.341364 C77.226275,114.151358 78.0112671,113.226368 79.0212722,112.566364 C80.0312772,111.906361 81.1962656,111.576364 82.5162722,111.576364 C83.6962781,111.576364 84.7262678,111.836362 85.6062722,112.356364 C86.4862766,112.876367 87.1562699,113.60636 87.6162722,114.546364 L87.6162722,111.936364 L90.0162722,111.936364 Z M82.9962722,125.226364 C84.4762796,125.226364 85.6162682,124.721369 86.4162722,123.711364 C87.2162762,122.701359 87.6162722,121.266374 87.6162722,119.406364 C87.6162722,117.546355 87.2162762,116.116369 86.4162722,115.116364 C85.6162682,114.116359 84.4762796,113.616364 82.9962722,113.616364 C81.5162648,113.616364 80.3612763,114.131359 79.5312722,115.161364 C78.701268,116.19137 78.2862722,117.626355 78.2862722,119.466364 C78.2862722,121.306374 78.6962681,122.726359 79.5162722,123.726364 C80.3362763,124.726369 81.4962647,125.226364 82.9962722,125.226364 Z M105.556272,111.966364 L107.986272,111.966364 L101.476272,127.026364 L99.1662722,127.026364 L92.7462722,111.966364 L95.2962722,111.966364 L100.396272,124.386364 L105.556272,111.966364 Z M123.286272,119.406364 L112.216272,119.406364 C112.236272,121.326374 112.681268,122.77636 113.551272,123.756364 C114.421277,124.736369 115.686264,125.226364 117.346272,125.226364 C119.106281,125.226364 120.726265,124.63637 122.206272,123.456364 L123.016272,125.226364 C122.356269,125.846368 121.511277,126.336363 120.481272,126.696364 C119.451267,127.056366 118.396278,127.236364 117.316272,127.236364 C114.95626,127.236364 113.106279,126.541371 111.766272,125.151364 C110.426265,123.761357 109.756272,121.856377 109.756272,119.436364 C109.756272,117.896357 110.056269,116.53137 110.656272,115.341364 C111.256275,114.151358 112.096267,113.226368 113.176272,112.566364 C114.256278,111.906361 115.486265,111.576364 116.866272,111.576364 C118.866282,111.576364 120.436266,112.231358 121.576272,113.541364 C122.716278,114.851371 123.286272,116.656353 123.286272,118.956364 L123.286272,119.406364 Z M116.896272,113.466364 C115.636266,113.466364 114.611276,113.846361 113.821272,114.606364 C113.031268,115.366368 112.526273,116.436358 112.306272,117.816364 L121.096272,117.816364 C120.976272,116.396357 120.561276,115.316368 119.851272,114.576364 C119.141269,113.836361 118.156278,113.466364 116.896272,113.466364 Z M148.066272,111.936364 L141.016272,128.406364 C140.276268,130.126373 139.346278,131.38636 138.226272,132.186364 C137.106267,132.986368 135.72628,133.536363 134.086272,133.836364 L133.576272,131.946364 C134.996279,131.626363 136.071269,131.201367 136.801272,130.671364 C137.531276,130.141362 138.13627,129.32637 138.616272,128.226364 L139.216272,126.876364 L132.826272,111.936364 L135.376272,111.936364 L140.476272,124.386364 L145.636272,111.936364 L148.066272,111.936364 Z M156.976272,127.236364 C155.556265,127.236364 154.306278,126.916368 153.226272,126.276364 C152.146267,125.636361 151.311275,124.72637 150.721272,123.546364 C150.131269,122.366359 149.836272,120.986372 149.836272,119.406364 C149.836272,117.826357 150.131269,116.44637 150.721272,115.266364 C151.311275,114.086359 152.146267,113.176368 153.226272,112.536364 C154.306278,111.896361 155.556265,111.576364 156.976272,111.576364 C158.396279,111.576364 159.646267,111.896361 160.726272,112.536364 C161.806278,113.176368 162.641269,114.086359 163.231272,115.266364 C163.821275,116.44637 164.116272,117.826357 164.116272,119.406364 C164.116272,120.986372 163.821275,122.366359 163.231272,123.546364 C162.641269,124.72637 161.806278,125.636361 160.726272,126.276364 C159.646267,126.916368 158.396279,127.236364 156.976272,127.236364 Z M156.976272,125.226364 C158.47628,125.226364 159.626268,124.731369 160.426272,123.741364 C161.226276,122.751359 161.626272,121.306374 161.626272,119.406364 C161.626272,117.566355 161.216276,116.141369 160.396272,115.131364 C159.576268,114.121359 158.436279,113.616364 156.976272,113.616364 C155.496265,113.616364 154.346276,114.121359 153.526272,115.131364 C152.706268,116.141369 152.296272,117.566355 152.296272,119.406364 C152.296272,121.306374 152.701268,122.751359 153.511272,123.741364 C154.321276,124.731369 155.476265,125.226364 156.976272,125.226364 Z M181.336272,111.936364 L181.336272,126.906364 C181.336272,129.146376 180.761278,130.841359 179.611272,131.991364 C178.461266,133.14137 176.766283,133.716364 174.526272,133.716364 C172.226261,133.716364 170.24628,133.19637 168.586272,132.156364 L169.006272,130.176364 C169.966277,130.716367 170.871268,131.106363 171.721272,131.346364 C172.571276,131.586366 173.506267,131.706364 174.526272,131.706364 C175.986279,131.706364 177.086268,131.321368 177.826272,130.551364 C178.566276,129.781361 178.936272,128.636372 178.936272,127.116364 L178.936272,123.546364 C178.47627,124.506369 177.801277,125.251362 176.911272,125.781364 C176.021268,126.311367 174.966278,126.576364 173.746272,126.576364 C172.426266,126.576364 171.251277,126.266368 170.221272,125.646364 C169.191267,125.026361 168.396275,124.14637 167.836272,123.006364 C167.276269,121.866359 166.996272,120.556372 166.996272,119.076364 C166.996272,117.596357 167.276269,116.28637 167.836272,115.146364 C168.396275,114.006359 169.191267,113.126368 170.221272,112.506364 C171.251277,111.886361 172.426266,111.576364 173.746272,111.576364 C174.946278,111.576364 175.991268,111.836362 176.881272,112.356364 C177.771277,112.876367 178.44627,113.60636 178.906272,114.546364 L178.906272,111.936364 L181.336272,111.936364 Z M174.226272,124.536364 C175.686279,124.536364 176.831268,124.051369 177.661272,123.081364 C178.491276,122.11136 178.906272,120.776373 178.906272,119.076364 C178.906272,117.376356 178.491276,116.041369 177.661272,115.071364 C176.831268,114.10136 175.686279,113.616364 174.226272,113.616364 C172.746265,113.616364 171.581276,114.10136 170.731272,115.071364 C169.881268,116.041369 169.456272,117.376356 169.456272,119.076364 C169.456272,120.776373 169.881268,122.11136 170.731272,123.081364 C171.581276,124.051369 172.746265,124.536364 174.226272,124.536364 Z M199.306272,111.936364 L199.306272,127.026364 L196.906272,127.026364 L196.906272,124.296364 C196.46627,125.236369 195.801277,125.961362 194.911272,126.471364 C194.021268,126.981367 192.986278,127.236364 191.806272,127.236364 C190.466265,127.236364 189.291277,126.916368 188.281272,126.276364 C187.271267,125.636361 186.491275,124.73137 185.941272,123.561364 C185.391269,122.391359 185.116272,121.026372 185.116272,119.466364 C185.116272,117.906357 185.396269,116.53137 185.956272,115.341364 C186.516275,114.151358 187.301267,113.226368 188.311272,112.566364 C189.321277,111.906361 190.486266,111.576364 191.806272,111.576364 C192.986278,111.576364 194.016268,111.836362 194.896272,112.356364 C195.776277,112.876367 196.44627,113.60636 196.906272,114.546364 L196.906272,111.936364 L199.306272,111.936364 Z M192.286272,125.226364 C193.76628,125.226364 194.906268,124.721369 195.706272,123.711364 C196.506276,122.701359 196.906272,121.266374 196.906272,119.406364 C196.906272,117.546355 196.506276,116.116369 195.706272,115.116364 C194.906268,114.116359 193.76628,113.616364 192.286272,113.616364 C190.806265,113.616364 189.651276,114.131359 188.821272,115.161364 C187.991268,116.19137 187.576272,117.626355 187.576272,119.466364 C187.576272,121.306374 187.986268,122.726359 188.806272,123.726364 C189.626276,124.726369 190.786265,125.226364 192.286272,125.226364 Z M71.3262722,149.936364 L71.3262722,165.026364 L68.9262722,165.026364 L68.9262722,162.296364 C68.48627,163.236369 67.8212766,163.961362 66.9312722,164.471364 C66.0412677,164.981367 65.0062781,165.236364 63.8262722,165.236364 C62.4862655,165.236364 61.3112772,164.916368 60.3012722,164.276364 C59.2912671,163.636361 58.5112749,162.73137 57.9612722,161.561364 C57.4112694,160.391359 57.1362722,159.026372 57.1362722,157.466364 C57.1362722,155.906357 57.4162694,154.53137 57.9762722,153.341364 C58.536275,152.151358 59.3212671,151.226368 60.3312722,150.566364 C61.3412772,149.906361 62.5062656,149.576364 63.8262722,149.576364 C65.0062781,149.576364 66.0362678,149.836362 66.9162722,150.356364 C67.7962766,150.876367 68.4662699,151.60636 68.9262722,152.546364 L68.9262722,149.936364 L71.3262722,149.936364 Z M64.3062722,163.226364 C65.7862796,163.226364 66.9262682,162.721369 67.7262722,161.711364 C68.5262762,160.701359 68.9262722,159.266374 68.9262722,157.406364 C68.9262722,155.546355 68.5262762,154.116369 67.7262722,153.116364 C66.9262682,152.116359 65.7862796,151.616364 64.3062722,151.616364 C62.8262648,151.616364 61.6712763,152.131359 60.8412722,153.161364 C60.011268,154.19137 59.5962722,155.626355 59.5962722,157.466364 C59.5962722,159.306374 60.0062681,160.726359 60.8262722,161.726364 C61.6462763,162.726369 62.8062647,163.226364 64.3062722,163.226364 Z M83.0562722,149.576364 C83.5562747,149.576364 84.0162701,149.636364 84.4362722,149.756364 L84.3762722,151.976364 C83.9162699,151.816364 83.3862752,151.736364 82.7862722,151.736364 C81.3262649,151.736364 80.2412757,152.19136 79.5312722,153.101364 C78.8212686,154.011369 78.4662722,155.116358 78.4662722,156.416364 L78.4662722,165.026364 L76.0362722,165.026364 L76.0362722,154.166364 C76.0362722,152.606357 75.956273,151.196371 75.7962722,149.936364 L78.1062722,149.936364 L78.3462722,152.726364 C78.7262741,151.706359 79.336268,150.926367 80.1762722,150.386364 C81.0162764,149.846362 81.9762668,149.576364 83.0562722,149.576364 Z M90.1362722,151.856364 L90.1362722,160.106364 C90.1362722,161.22637 90.3662699,162.011362 90.8262722,162.461364 C91.2862745,162.911367 91.936268,163.136364 92.7762722,163.136364 C93.336275,163.136364 93.8762696,163.046365 94.3962722,162.866364 L94.3962722,164.936364 C93.7762691,165.136365 93.0762761,165.236364 92.2962722,165.236364 C90.856265,165.236364 89.7312762,164.831368 88.9212722,164.021364 C88.1112681,163.21136 87.7062722,162.016372 87.7062722,160.436364 L87.7062722,151.856364 L84.7662722,151.856364 L84.7662722,149.936364 L87.7062722,149.936364 L87.7062722,146.066364 L90.1362722,145.196364 L90.1362722,149.936364 L94.4562722,149.936364 L94.4562722,151.856364 L90.1362722,151.856364 Z M97.3962722,165.026364 L97.3962722,149.936364 L99.8262722,149.936364 L99.8262722,165.026364 L97.3962722,165.026364 Z M97.1562722,143.546364 L100.126272,143.546364 L100.126272,146.306364 L97.1562722,146.306364 L97.1562722,143.546364 Z M110.866272,165.236364 C109.406265,165.236364 108.131278,164.916368 107.041272,164.276364 C105.951267,163.636361 105.111275,162.73137 104.521272,161.561364 C103.931269,160.391359 103.636272,159.026372 103.636272,157.466364 C103.636272,155.906357 103.936269,154.53137 104.536272,153.341364 C105.136275,152.151358 105.991267,151.226368 107.101272,150.566364 C108.211278,149.906361 109.506265,149.576364 110.986272,149.576364 C112.006277,149.576364 112.991267,149.751363 113.941272,150.101364 C114.891277,150.451366 115.676269,150.936361 116.296272,151.556364 L115.486272,153.356364 C114.726268,152.756361 113.991276,152.316366 113.281272,152.036364 C112.571269,151.756363 111.846276,151.616364 111.106272,151.616364 C109.566264,151.616364 108.356277,152.131359 107.476272,153.161364 C106.596268,154.19137 106.156272,155.626355 106.156272,157.466364 C106.156272,159.286374 106.591268,160.701359 107.461272,161.711364 C108.331277,162.721369 109.546264,163.226364 111.106272,163.226364 C111.846276,163.226364 112.571269,163.086366 113.281272,162.806364 C113.991276,162.526363 114.726268,162.086367 115.486272,161.486364 L116.296272,163.286364 C115.656269,163.886367 114.851277,164.361363 113.881272,164.711364 C112.911267,165.061366 111.906277,165.236364 110.866272,165.236364 Z M119.386272,165.026364 L119.386272,142.946364 L121.816272,142.946364 L121.816272,165.026364 L119.386272,165.026364 Z M139.156272,157.406364 L128.086272,157.406364 C128.106272,159.326374 128.551268,160.77636 129.421272,161.756364 C130.291277,162.736369 131.556264,163.226364 133.216272,163.226364 C134.976281,163.226364 136.596265,162.63637 138.076272,161.456364 L138.886272,163.226364 C138.226269,163.846368 137.381277,164.336363 136.351272,164.696364 C135.321267,165.056366 134.266278,165.236364 133.186272,165.236364 C130.82626,165.236364 128.976279,164.541371 127.636272,163.151364 C126.296265,161.761357 125.626272,159.856377 125.626272,157.436364 C125.626272,155.896357 125.926269,154.53137 126.526272,153.341364 C127.126275,152.151358 127.966267,151.226368 129.046272,150.566364 C130.126278,149.906361 131.356265,149.576364 132.736272,149.576364 C134.736282,149.576364 136.306266,150.231358 137.446272,151.541364 C138.586278,152.851371 139.156272,154.656353 139.156272,156.956364 L139.156272,157.406364 Z M132.766272,151.466364 C131.506266,151.466364 130.481276,151.846361 129.691272,152.606364 C128.901268,153.366368 128.396273,154.436358 128.176272,155.816364 L136.966272,155.816364 C136.846272,154.396357 136.431276,153.316368 135.721272,152.576364 C135.011269,151.836361 134.026278,151.466364 132.766272,151.466364 Z M147.946272,165.236364 C145.406259,165.236364 143.39628,164.586371 141.916272,163.286364 L142.726272,161.486364 C143.546276,162.126368 144.376268,162.586363 145.216272,162.866364 C146.056276,163.146366 146.996267,163.286364 148.036272,163.286364 C149.176278,163.286364 150.041269,163.091366 150.631272,162.701364 C151.221275,162.311362 151.516272,161.746368 151.516272,161.006364 C151.516272,160.406361 151.316274,159.926366 150.916272,159.566364 C150.51627,159.206363 149.856277,158.926365 148.936272,158.726364 L146.386272,158.126364 C145.126266,157.846363 144.151276,157.346368 143.461272,156.626364 C142.771269,155.906361 142.426272,155.046369 142.426272,154.046364 C142.426272,152.726358 142.956267,151.651369 144.016272,150.821364 C145.076277,149.99136 146.476263,149.576364 148.216272,149.576364 C149.276277,149.576364 150.276267,149.746363 151.216272,150.086364 C152.156277,150.426366 152.946269,150.916361 153.586272,151.556364 L152.776272,153.326364 C151.356265,152.146359 149.83628,151.556364 148.216272,151.556364 C147.136267,151.556364 146.301275,151.761362 145.711272,152.171364 C145.121269,152.581366 144.826272,153.156361 144.826272,153.896364 C144.826272,154.516368 145.01127,155.006363 145.381272,155.366364 C145.751274,155.726366 146.346268,156.006363 147.166272,156.206364 L149.716272,156.836364 C151.116279,157.156366 152.156269,157.651361 152.836272,158.321364 C153.516276,158.991368 153.856272,159.866359 153.856272,160.946364 C153.856272,162.246371 153.326277,163.286361 152.266272,164.066364 C151.206267,164.846368 149.766281,165.236364 147.946272,165.236364 Z M168.796272,151.856364 L168.796272,160.106364 C168.796272,161.22637 169.02627,162.011362 169.486272,162.461364 C169.946274,162.911367 170.596268,163.136364 171.436272,163.136364 C171.996275,163.136364 172.53627,163.046365 173.056272,162.866364 L173.056272,164.936364 C172.436269,165.136365 171.736276,165.236364 170.956272,165.236364 C169.516265,165.236364 168.391276,164.831368 167.581272,164.021364 C166.771268,163.21136 166.366272,162.016372 166.366272,160.436364 L166.366272,151.856364 L163.426272,151.856364 L163.426272,149.936364 L166.366272,149.936364 L166.366272,146.066364 L168.796272,145.196364 L168.796272,149.936364 L173.116272,149.936364 L173.116272,151.856364 L168.796272,151.856364 Z M182.296272,165.236364 C180.876265,165.236364 179.626278,164.916368 178.546272,164.276364 C177.466267,163.636361 176.631275,162.72637 176.041272,161.546364 C175.451269,160.366359 175.156272,158.986372 175.156272,157.406364 C175.156272,155.826357 175.451269,154.44637 176.041272,153.266364 C176.631275,152.086359 177.466267,151.176368 178.546272,150.536364 C179.626278,149.896361 180.876265,149.576364 182.296272,149.576364 C183.716279,149.576364 184.966267,149.896361 186.046272,150.536364 C187.126278,151.176368 187.961269,152.086359 188.551272,153.266364 C189.141275,154.44637 189.436272,155.826357 189.436272,157.406364 C189.436272,158.986372 189.141275,160.366359 188.551272,161.546364 C187.961269,162.72637 187.126278,163.636361 186.046272,164.276364 C184.966267,164.916368 183.716279,165.236364 182.296272,165.236364 Z M182.296272,163.226364 C183.79628,163.226364 184.946268,162.731369 185.746272,161.741364 C186.546276,160.751359 186.946272,159.306374 186.946272,157.406364 C186.946272,155.566355 186.536276,154.141369 185.716272,153.131364 C184.896268,152.121359 183.756279,151.616364 182.296272,151.616364 C180.816265,151.616364 179.666276,152.121359 178.846272,153.131364 C178.026268,154.141369 177.616272,155.566355 177.616272,157.406364 C177.616272,159.306374 178.021268,160.751359 178.831272,161.741364 C179.641276,162.731369 180.796265,163.226364 182.296272,163.226364 Z M217.786272,149.576364 C221.126289,149.576364 222.796272,151.566345 222.796272,155.546364 L222.796272,165.026364 L220.366272,165.026364 L220.366272,155.666364 C220.366272,154.246357 220.121275,153.216368 219.631272,152.576364 C219.14127,151.936361 218.346278,151.616364 217.246272,151.616364 C215.966266,151.616364 214.966276,152.04636 214.246272,152.906364 C213.526269,153.766369 213.166272,154.936357 213.166272,156.416364 L213.166272,165.026364 L210.736272,165.026364 L210.736272,155.666364 C210.736272,154.266357 210.486275,153.241368 209.986272,152.591364 C209.48627,151.941361 208.686278,151.616364 207.586272,151.616364 C206.306266,151.616364 205.301276,152.04636 204.571272,152.906364 C203.841269,153.766369 203.476272,154.936357 203.476272,156.416364 L203.476272,165.026364 L201.046272,165.026364 L201.046272,154.166364 C201.046272,152.606357 200.966273,151.196371 200.806272,149.936364 L203.116272,149.936364 L203.356272,152.576364 C203.776274,151.61636 204.401268,150.876367 205.231272,150.356364 C206.061276,149.836362 207.026267,149.576364 208.126272,149.576364 C209.326278,149.576364 210.306268,149.816362 211.066272,150.296364 C211.826276,150.776367 212.38627,151.516359 212.746272,152.516364 C213.206274,151.61636 213.881268,150.901367 214.771272,150.371364 C215.661277,149.841362 216.666267,149.576364 217.786272,149.576364 Z M240.676272,149.936364 L233.626272,166.406364 C232.886268,168.126373 231.956278,169.38636 230.836272,170.186364 C229.716267,170.986368 228.33628,171.536363 226.696272,171.836364 L226.186272,169.946364 C227.606279,169.626363 228.681269,169.201367 229.411272,168.671364 C230.141276,168.141362 230.74627,167.32637 231.226272,166.226364 L231.826272,164.876364 L225.436272,149.936364 L227.986272,149.936364 L233.086272,162.386364 L238.246272,149.936364 L240.676272,149.936364 Z M65.5662722,187.576364 C66.8862788,187.576364 68.0562671,187.906361 69.0762722,188.566364 C70.0962773,189.226368 70.8862694,190.151358 71.4462722,191.341364 C72.006275,192.53137 72.2862722,193.906357 72.2862722,195.466364 C72.2862722,197.026372 72.006275,198.391359 71.4462722,199.561364 C70.8862694,200.73137 70.1012772,201.636361 69.0912722,202.276364 C68.0812671,202.916368 66.9062789,203.236364 65.5662722,203.236364 C64.3862663,203.236364 63.3562766,202.976367 62.4762722,202.456364 C61.5962678,201.936362 60.9262745,201.196369 60.4662722,200.236364 L60.4662722,209.506364 L58.0362722,209.506364 L58.0362722,192.166364 C58.0362722,190.606357 57.956273,189.196371 57.7962722,187.936364 L60.1062722,187.936364 L60.3462722,190.846364 C60.7662743,189.806359 61.4312676,189.001367 62.3412722,188.431364 C63.2512767,187.861362 64.326266,187.576364 65.5662722,187.576364 Z M65.1162722,201.226364 C66.5962796,201.226364 67.7412681,200.726369 68.5512722,199.726364 C69.3612762,198.726359 69.7662722,197.306374 69.7662722,195.466364 C69.7662722,193.626355 69.3562763,192.19137 68.5362722,191.161364 C67.7162681,190.131359 66.5762795,189.616364 65.1162722,189.616364 C63.6162647,189.616364 62.4662722,190.116364 61.6662722,191.116364 C60.8662682,192.116369 60.4662722,193.546355 60.4662722,195.406364 C60.4662722,197.266374 60.8662682,198.701359 61.6662722,199.711364 C62.4662762,200.721369 63.6162647,201.226364 65.1162722,201.226364 Z M83.0562722,187.576364 C83.5562747,187.576364 84.0162701,187.636364 84.4362722,187.756364 L84.3762722,189.976364 C83.9162699,189.816364 83.3862752,189.736364 82.7862722,189.736364 C81.3262649,189.736364 80.2412757,190.19136 79.5312722,191.101364 C78.8212686,192.011369 78.4662722,193.116358 78.4662722,194.416364 L78.4662722,203.026364 L76.0362722,203.026364 L76.0362722,192.166364 C76.0362722,190.606357 75.956273,189.196371 75.7962722,187.936364 L78.1062722,187.936364 L78.3462722,190.726364 C78.7262741,189.706359 79.336268,188.926367 80.1762722,188.386364 C81.0162764,187.846362 81.9762668,187.576364 83.0562722,187.576364 Z M93.1362722,203.236364 C91.7162651,203.236364 90.4662776,202.916368 89.3862722,202.276364 C88.3062668,201.636361 87.4712751,200.72637 86.8812722,199.546364 C86.2912692,198.366359 85.9962722,196.986372 85.9962722,195.406364 C85.9962722,193.826357 86.2912692,192.44637 86.8812722,191.266364 C87.4712751,190.086359 88.3062668,189.176368 89.3862722,188.536364 C90.4662776,187.896361 91.7162651,187.576364 93.1362722,187.576364 C94.5562793,187.576364 95.8062668,187.896361 96.8862722,188.536364 C97.9662776,189.176368 98.8012692,190.086359 99.3912722,191.266364 C99.9812751,192.44637 100.276272,193.826357 100.276272,195.406364 C100.276272,196.986372 99.9812751,198.366359 99.3912722,199.546364 C98.8012692,200.72637 97.9662776,201.636361 96.8862722,202.276364 C95.8062668,202.916368 94.5562793,203.236364 93.1362722,203.236364 Z M93.1362722,201.226364 C94.6362797,201.226364 95.7862682,200.731369 96.5862722,199.741364 C97.3862762,198.751359 97.7862722,197.306374 97.7862722,195.406364 C97.7862722,193.566355 97.3762763,192.141369 96.5562722,191.131364 C95.7362681,190.121359 94.5962795,189.616364 93.1362722,189.616364 C91.6562648,189.616364 90.5062763,190.121359 89.6862722,191.131364 C88.8662681,192.141369 88.4562722,193.566355 88.4562722,195.406364 C88.4562722,197.306374 88.8612681,198.751359 89.6712722,199.741364 C90.4812762,200.731369 91.6362647,201.226364 93.1362722,201.226364 Z M107.296272,187.936364 L116.566272,187.936364 L116.566272,203.026364 L114.136272,203.026364 L114.136272,189.856364 L107.296272,189.856364 L107.296272,203.026364 L104.866272,203.026364 L104.866272,189.856364 L101.926272,189.856364 L101.926272,187.936364 L104.866272,187.936364 L104.866272,185.926364 C104.866272,184.706358 105.05127,183.726368 105.421272,182.986364 C105.791274,182.246361 106.396268,181.706366 107.236272,181.366364 C108.076276,181.026363 109.216265,180.856364 110.656272,180.856364 L111.616272,180.856364 L111.616272,182.746364 L110.866272,182.746364 C109.826267,182.746364 109.061275,182.836364 108.571272,183.016364 C108.08127,183.196365 107.746273,183.541362 107.566272,184.051364 C107.386271,184.561367 107.296272,185.346359 107.296272,186.406364 L107.296272,187.936364 Z M113.836272,181.396364 L116.866272,181.396364 L116.866272,184.216364 L113.836272,184.216364 L113.836272,181.396364 Z M121.246272,203.026364 L121.246272,180.946364 L123.676272,180.946364 L123.676272,203.026364 L121.246272,203.026364 Z M141.016272,195.406364 L129.946272,195.406364 C129.966272,197.326374 130.411268,198.77636 131.281272,199.756364 C132.151277,200.736369 133.416264,201.226364 135.076272,201.226364 C136.836281,201.226364 138.456265,200.63637 139.936272,199.456364 L140.746272,201.226364 C140.086269,201.846368 139.241277,202.336363 138.211272,202.696364 C137.181267,203.056366 136.126278,203.236364 135.046272,203.236364 C132.68626,203.236364 130.836279,202.541371 129.496272,201.151364 C128.156265,199.761357 127.486272,197.856377 127.486272,195.436364 C127.486272,193.896357 127.786269,192.53137 128.386272,191.341364 C128.986275,190.151358 129.826267,189.226368 130.906272,188.566364 C131.986278,187.906361 133.216265,187.576364 134.596272,187.576364 C136.596282,187.576364 138.166266,188.231358 139.306272,189.541364 C140.446278,190.851371 141.016272,192.656353 141.016272,194.956364 L141.016272,195.406364 Z M134.626272,189.466364 C133.366266,189.466364 132.341276,189.846361 131.551272,190.606364 C130.761268,191.366368 130.256273,192.436358 130.036272,193.816364 L138.826272,193.816364 C138.706272,192.396357 138.291276,191.316368 137.581272,190.576364 C136.871269,189.836361 135.886278,189.466364 134.626272,189.466364 Z M144.286272,199.936364 L147.376272,199.936364 L147.376272,203.026364 L144.286272,203.026364 L144.286272,199.936364 Z" id="Saveyogaarticlestomyprofle." fill="#00120B" fill-rule="nonzero" transform="translate(148.906272, 157.466364) rotate(-16.000000) translate(-148.906272, -157.466364) "></path>
                </g>
            </g>
        </g>
    </g>
</svg>