<?xml version="1.0" encoding="UTF-8"?>
<svg width="251px" height="259px" viewBox="0 0 251 259" version="1.1" xmlns="http://www.w3.org/2000/svg" xmlns:xlink="http://www.w3.org/1999/xlink">
    <!-- Generator: Sketch 54.1 (76490) - https://sketchapp.com -->
    <title>sticky2</title>
    <desc>Created with Sketch.</desc>
    <defs>
        <rect id="path-1" x="-2.84217094e-14" y="1.70530257e-13" width="243.288789" height="250.676164"></rect>
        <filter x="-2.9%" y="-2.0%" width="105.8%" height="105.6%" filterUnits="objectBoundingBox" id="filter-2">
            <feOffset dx="0" dy="2" in="SourceAlpha" result="shadowOffsetOuter1"></feOffset>
            <feGaussianBlur stdDeviation="2" in="shadowOffsetOuter1" result="shadowBlurOuter1"></feGaussianBlur>
            <feColorMatrix values="0 0 0 0 0   0 0 0 0 0   0 0 0 0 0  0 0 0 0.5 0" type="matrix" in="shadowBlurOuter1"></feColorMatrix>
        </filter>
    </defs>
    <g id="Portfolio-Images" stroke="none" stroke-width="1" fill="none" fill-rule="evenodd">
        <g id="Artboard" transform="translate(-330.000000, -53.000000)">
            <g id="User-Stories">
                <g id="sticky2" transform="translate(333.688433, 54.922344)">
                    <g id="Rectangle">
                        <use fill="black" fill-opacity="1" filter="url(#filter-2)" xlink:href="#path-1"></use>
                        <use fill="#FFFFFF" fill-rule="evenodd" xlink:href="#path-1"></use>
                    </g>
                    <g id="us-2" transform="translate(18.644394, 67.838082)" fill="#00120B" fill-rule="nonzero">
                        <path d="M2.64,8.84050177 L11.16,8.84050177 C13.360011,8.84050177 15.0749938,9.37049647 16.305,10.4305018 C17.5350062,11.4905071 18.15,12.9504925 18.15,14.8105018 C18.15,16.6705111 17.5300062,18.1354964 16.29,19.2055018 C15.0499938,20.2755071 13.3400109,20.8105018 11.16,20.8105018 L5.1,20.8105018 L5.1,30.2005018 L2.64,30.2005018 L2.64,8.84050177 Z M10.95,18.7705018 C12.5300079,18.7705018 13.719996,18.4305052 14.52,17.7505018 C15.320004,17.0704984 15.72,16.0905082 15.72,14.8105018 C15.72,13.5304954 15.320004,12.5555051 14.52,11.8855018 C13.719996,11.2154984 12.5300079,10.8805018 10.95,10.8805018 L5.1,10.8805018 L5.1,18.7705018 L10.95,18.7705018 Z M34.5,15.1105018 L34.5,30.2005018 L32.13,30.2005018 L32.13,27.5905018 C31.6499976,28.5105064 30.9800043,29.2104994 30.12,29.6905018 C29.2599957,30.1705042 28.2900054,30.4105018 27.21,30.4105018 C25.4299911,30.4105018 24.0800046,29.9105068 23.16,28.9105018 C22.2399954,27.9104968 21.78,26.4305116 21.78,24.4705018 L21.78,15.1105018 L24.21,15.1105018 L24.21,24.4105018 C24.21,25.7705086 24.4899972,26.7704986 25.05,27.4105018 C25.6100028,28.050505 26.4599943,28.3705018 27.6,28.3705018 C28.9400067,28.3705018 30.0199959,27.9355061 30.84,27.0655018 C31.6600041,26.1954974 32.07,25.0505089 32.07,23.6305018 L32.07,15.1105018 L34.5,15.1105018 Z M42.42,17.0305018 L42.42,25.2805018 C42.42,26.4005074 42.6499977,27.1854995 43.11,27.6355018 C43.5700023,28.085504 44.2199958,28.3105018 45.06,28.3105018 C45.6200028,28.3105018 46.1599974,28.2205027 46.68,28.0405018 L46.68,30.1105018 C46.0599969,30.3105028 45.3600039,30.4105018 44.58,30.4105018 C43.1399928,30.4105018 42.015004,30.0055058 41.205,29.1955018 C40.3949959,28.3854977 39.99,27.1905097 39.99,25.6105018 L39.99,17.0305018 L37.05,17.0305018 L37.05,15.1105018 L39.99,15.1105018 L39.99,11.2405018 L42.42,10.3705018 L42.42,15.1105018 L46.74,15.1105018 L46.74,17.0305018 L42.42,17.0305018 Z M74.25,14.7505018 C77.5900167,14.7505018 79.26,16.7404819 79.26,20.7205018 L79.26,30.2005018 L76.83,30.2005018 L76.83,20.8405018 C76.83,19.4204947 76.5850024,18.390505 76.095,17.7505018 C75.6049975,17.1104986 74.8100055,16.7905018 73.71,16.7905018 C72.4299936,16.7905018 71.4300036,17.2204975 70.71,18.0805018 C69.9899964,18.9405061 69.63,20.1104944 69.63,21.5905018 L69.63,30.2005018 L67.2,30.2005018 L67.2,20.8405018 C67.2,19.4404948 66.9500025,18.415505 66.45,17.7655018 C65.9499975,17.1154985 65.1500055,16.7905018 64.05,16.7905018 C62.7699936,16.7905018 61.7650036,17.2204975 61.035,18.0805018 C60.3049963,18.9405061 59.94,20.1104944 59.94,21.5905018 L59.94,30.2005018 L57.51,30.2005018 L57.51,19.3405018 C57.51,17.780494 57.4300008,16.3705081 57.27,15.1105018 L59.58,15.1105018 L59.82,17.7505018 C60.2400021,16.790497 60.8649958,16.0505044 61.695,15.5305018 C62.5250041,15.0104992 63.4899945,14.7505018 64.59,14.7505018 C65.790006,14.7505018 66.7699962,14.9904994 67.53,15.4705018 C68.2900038,15.9505042 68.8499982,16.6904968 69.21,17.6905018 C69.6700023,16.7904973 70.3449955,16.0755044 71.235,15.5455018 C72.1250044,15.0154991 73.1299944,14.7505018 74.25,14.7505018 Z M97.14,15.1105018 L90.09,31.5805018 C89.3499963,33.3005104 88.4200056,34.5604978 87.3,35.3605018 C86.1799944,36.1605058 84.8000082,36.7105003 83.16,37.0105018 L82.65,35.1205018 C84.0700071,34.8005002 85.1449963,34.3755044 85.875,33.8455018 C86.6050036,33.3154991 87.2099976,32.5005073 87.69,31.4005018 L88.29,30.0505018 L81.9,15.1105018 L84.45,15.1105018 L89.55,27.5605018 L94.71,15.1105018 L97.14,15.1105018 Z M112.74,30.4105018 C110.199987,30.4105018 108.190007,29.7605083 106.71,28.4605018 L107.52,26.6605018 C108.340004,27.300505 109.169996,27.7605004 110.01,28.0405018 C110.850004,28.3205032 111.789995,28.4605018 112.83,28.4605018 C113.970006,28.4605018 114.834997,28.2655037 115.425,27.8755018 C116.015003,27.4854998 116.31,26.9205055 116.31,26.1805018 C116.31,25.5804988 116.110002,25.1005036 115.71,24.7405018 C115.309998,24.3805 114.650005,24.1005028 113.73,23.9005018 L111.18,23.3005018 C109.919994,23.0205004 108.945003,22.5205054 108.255,21.8005018 C107.564997,21.0804982 107.22,20.2205068 107.22,19.2205018 C107.22,17.9004952 107.749995,16.8255059 108.81,15.9955018 C109.870005,15.1654976 111.269991,14.7505018 113.01,14.7505018 C114.070005,14.7505018 115.069995,14.9205001 116.01,15.2605018 C116.950005,15.6005035 117.739997,16.0904986 118.38,16.7305018 L117.57,18.5005018 C116.149993,17.3204959 114.630008,16.7305018 113.01,16.7305018 C111.929995,16.7305018 111.095003,16.9354997 110.505,17.3455018 C109.914997,17.7555038 109.62,18.3304981 109.62,19.0705018 C109.62,19.6905049 109.804998,20.1805 110.175,20.5405018 C110.545002,20.9005036 111.139996,21.1805008 111.96,21.3805018 L114.51,22.0105018 C115.910007,22.3305034 116.949997,22.8254984 117.63,23.4955018 C118.310003,24.1655051 118.65,25.0404964 118.65,26.1205018 C118.65,27.4205083 118.120005,28.4604979 117.06,29.2405018 C115.999995,30.0205057 114.560009,30.4105018 112.74,30.4105018 Z M135.81,15.1105018 L135.81,30.2005018 L133.41,30.2005018 L133.41,27.4705018 C132.969998,28.4105065 132.305004,29.1354992 131.415,29.6455018 C130.524996,30.1555043 129.490006,30.4105018 128.31,30.4105018 C126.969993,30.4105018 125.795005,30.090505 124.785,29.4505018 C123.774995,28.8104986 122.995003,27.9055076 122.445,26.7355018 C121.894997,25.5654959 121.62,24.2005096 121.62,22.6405018 C121.62,21.080494 121.899997,19.7055077 122.46,18.5155018 C123.020003,17.3254958 123.804995,16.4005051 124.815,15.7405018 C125.825005,15.0804985 126.989993,14.7505018 128.31,14.7505018 C129.490006,14.7505018 130.519996,15.0104992 131.4,15.5305018 C132.280004,16.0505044 132.949998,16.7804971 133.41,17.7205018 L133.41,15.1105018 L135.81,15.1105018 Z M128.79,28.4005018 C130.270007,28.4005018 131.409996,27.8955068 132.21,26.8855018 C133.010004,25.8754967 133.41,24.4405111 133.41,22.5805018 C133.41,20.7204925 133.010004,19.2905068 132.21,18.2905018 C131.409996,17.2904968 130.270007,16.7905018 128.79,16.7905018 C127.309993,16.7905018 126.155004,17.3054966 125.325,18.3355018 C124.494996,19.3655069 124.08,20.8004926 124.08,22.6405018 C124.08,24.480511 124.489996,25.9004968 125.31,26.9005018 C126.130004,27.9005068 127.289993,28.4005018 128.79,28.4005018 Z M151.35,15.1405018 L153.78,15.1405018 L147.27,30.2005018 L144.96,30.2005018 L138.54,15.1405018 L141.09,15.1405018 L146.19,27.5605018 L151.35,15.1405018 Z M169.08,22.5805018 L158.01,22.5805018 C158.03,24.5005114 158.474996,25.9504969 159.345,26.9305018 C160.215004,27.9105067 161.479992,28.4005018 163.14,28.4005018 C164.900009,28.4005018 166.519993,27.8105077 168,26.6305018 L168.81,28.4005018 C168.149997,29.0205049 167.305005,29.5105 166.275,29.8705018 C165.244995,30.2305036 164.190005,30.4105018 163.11,30.4105018 C160.749988,30.4105018 158.900007,29.7155087 157.56,28.3255018 C156.219993,26.9354948 155.55,25.0305139 155.55,22.6105018 C155.55,21.0704941 155.849997,19.7055077 156.45,18.5155018 C157.050003,17.3254958 157.889995,16.4005051 158.97,15.7405018 C160.050005,15.0804985 161.279993,14.7505018 162.66,14.7505018 C164.66001,14.7505018 166.229994,15.4054952 167.37,16.7155018 C168.510006,18.0255083 169.08,19.8304903 169.08,22.1305018 L169.08,22.5805018 Z M162.69,16.6405018 C161.429994,16.6405018 160.405004,17.020498 159.615,17.7805018 C158.824996,18.5405056 158.320001,19.6104949 158.1,20.9905018 L166.89,20.9905018 C166.769999,19.5704947 166.355004,18.4905055 165.645,17.7505018 C164.934996,17.0104981 163.950006,16.6405018 162.69,16.6405018 Z M186.06,8.12050177 L186.06,30.2005018 L183.66,30.2005018 L183.66,27.4705018 C183.219998,28.4105065 182.555004,29.1354992 181.665,29.6455018 C180.774996,30.1555043 179.740006,30.4105018 178.56,30.4105018 C177.239993,30.4105018 176.075005,30.0805051 175.065,29.4205018 C174.054995,28.7604985 173.270003,27.8355077 172.71,26.6455018 C172.149997,25.4554958 171.87,24.0805096 171.87,22.5205018 C171.87,20.960494 172.144997,19.5955076 172.695,18.4255018 C173.245003,17.2554959 174.029995,16.350505 175.05,15.7105018 C176.070005,15.0704986 177.239993,14.7505018 178.56,14.7505018 C179.740006,14.7505018 180.769996,15.0054992 181.65,15.5155018 C182.530004,16.0255043 183.189998,16.7404972 183.63,17.6605018 L183.63,8.12050177 L186.06,8.12050177 Z M179.04,28.4005018 C180.520007,28.4005018 181.659996,27.8955068 182.46,26.8855018 C183.260004,25.8754967 183.66,24.4405111 183.66,22.5805018 C183.66,20.7404926 183.260004,19.3155068 182.46,18.3055018 C181.659996,17.2954967 180.520007,16.7905018 179.04,16.7905018 C177.559993,16.7905018 176.405004,17.2904968 175.575,18.2905018 C174.744996,19.2905068 174.33,20.7004927 174.33,22.5205018 C174.33,24.3805111 174.744996,25.8254966 175.575,26.8555018 C176.405004,27.8855069 177.559993,28.4005018 179.04,28.4005018 Z M8.67,68.4105018 C7.2099927,68.4105018 5.93500545,68.090505 4.845,67.4505018 C3.75499455,66.8104986 2.91500295,65.9055076 2.325,64.7355018 C1.73499705,63.5654959 1.44,62.2005096 1.44,60.6405018 C1.44,59.080494 1.739997,57.7055077 2.34,56.5155018 C2.940003,55.3254958 3.79499445,54.4005051 4.905,53.7405018 C6.01500555,53.0804985 7.3099926,52.7505018 8.79,52.7505018 C9.8100051,52.7505018 10.7949952,52.9255 11.745,53.2755018 C12.6950047,53.6255035 13.4799969,54.1104987 14.1,54.7305018 L13.29,56.5305018 C12.5299962,55.9304988 11.7950036,55.4905032 11.085,55.2105018 C10.3749964,54.9305004 9.6500037,54.7905018 8.91,54.7905018 C7.3699923,54.7905018 6.1600044,55.3054966 5.28,56.3355018 C4.3999956,57.3655069 3.96,58.8004926 3.96,60.6405018 C3.96,62.4605109 4.39499565,63.8754967 5.265,64.8855018 C6.13500435,65.8955068 7.3499922,66.4005018 8.91,66.4005018 C9.6500037,66.4005018 10.3749964,66.2605032 11.085,65.9805018 C11.7950036,65.7005004 12.5299962,65.2605048 13.29,64.6605018 L14.1,66.4605018 C13.4599968,67.0605048 12.6550048,67.5355 11.685,67.8855018 C10.7149952,68.2355035 9.7100052,68.4105018 8.67,68.4105018 Z M23.43,68.4105018 C22.0099929,68.4105018 20.7600054,68.090505 19.68,67.4505018 C18.5999946,66.8104986 17.7650029,65.9005077 17.175,64.7205018 C16.5849971,63.5404959 16.29,62.1605097 16.29,60.5805018 C16.29,59.0004939 16.5849971,57.6205077 17.175,56.4405018 C17.7650029,55.2604959 18.5999946,54.350505 19.68,53.7105018 C20.7600054,53.0704986 22.0099929,52.7505018 23.43,52.7505018 C24.8500071,52.7505018 26.0999946,53.0704986 27.18,53.7105018 C28.2600054,54.350505 29.094997,55.2604959 29.685,56.4405018 C30.2750029,57.6205077 30.57,59.0004939 30.57,60.5805018 C30.57,62.1605097 30.2750029,63.5404959 29.685,64.7205018 C29.094997,65.9005077 28.2600054,66.8104986 27.18,67.4505018 C26.0999946,68.090505 24.8500071,68.4105018 23.43,68.4105018 Z M23.43,66.4005018 C24.9300075,66.4005018 26.079996,65.9055067 26.88,64.9155018 C27.680004,63.9254968 28.08,62.4805113 28.08,60.5805018 C28.08,58.7404926 27.6700041,57.3155068 26.85,56.3055018 C26.0299959,55.2954967 24.8900073,54.7905018 23.43,54.7905018 C21.9499926,54.7905018 20.8000041,55.2954967 19.98,56.3055018 C19.1599959,57.3155068 18.75,58.7404926 18.75,60.5805018 C18.75,62.4805113 19.1549959,63.9254968 19.965,64.9155018 C20.775004,65.9055067 21.9299925,66.4005018 23.43,66.4005018 Z M41.88,52.7505018 C45.5000181,52.7505018 47.31,54.7404819 47.31,58.7205018 L47.31,68.2005018 L44.88,68.2005018 L44.88,58.8405018 C44.88,57.4404948 44.6000028,56.415505 44.04,55.7655018 C43.4799972,55.1154985 42.600006,54.7905018 41.4,54.7905018 C39.999993,54.7905018 38.8800042,55.2204975 38.04,56.0805018 C37.1999958,56.9405061 36.78,58.1004945 36.78,59.5605018 L36.78,68.2005018 L34.35,68.2005018 L34.35,57.3405018 C34.35,55.780494 34.2700008,54.3705081 34.11,53.1105018 L36.42,53.1105018 L36.66,55.8105018 C37.1200023,54.8304969 37.8099954,54.0755044 38.73,53.5455018 C39.6500046,53.0154991 40.6999941,52.7505018 41.88,52.7505018 Z M55.14,55.0305018 L55.14,63.2805018 C55.14,64.4005074 55.3699977,65.1854995 55.83,65.6355018 C56.2900023,66.085504 56.9399958,66.3105018 57.78,66.3105018 C58.3400028,66.3105018 58.8799974,66.2205027 59.4,66.0405018 L59.4,68.1105018 C58.7799969,68.3105028 58.0800039,68.4105018 57.3,68.4105018 C55.8599928,68.4105018 54.7350041,68.0055058 53.925,67.1955018 C53.114996,66.3854977 52.71,65.1905097 52.71,63.6105018 L52.71,55.0305018 L49.77,55.0305018 L49.77,53.1105018 L52.71,53.1105018 L52.71,49.2405018 L55.14,48.3705018 L55.14,53.1105018 L59.46,53.1105018 L59.46,55.0305018 L55.14,55.0305018 Z M75.03,60.5805018 L63.96,60.5805018 C63.9800001,62.5005114 64.4249956,63.9504969 65.295,64.9305018 C66.1650044,65.9105067 67.4299917,66.4005018 69.09,66.4005018 C70.8500088,66.4005018 72.4699926,65.8105077 73.95,64.6305018 L74.76,66.4005018 C74.0999967,67.0205049 73.2550051,67.5105 72.225,67.8705018 C71.1949949,68.2305036 70.1400054,68.4105018 69.06,68.4105018 C66.6999882,68.4105018 64.8500067,67.7155087 63.51,66.3255018 C62.1699933,64.9354948 61.5,63.0305139 61.5,60.6105018 C61.5,59.0704941 61.799997,57.7055077 62.4,56.5155018 C63.000003,55.3254958 63.8399946,54.4005051 64.92,53.7405018 C66.0000054,53.0804985 67.2299931,52.7505018 68.61,52.7505018 C70.61001,52.7505018 72.1799943,53.4054952 73.32,54.7155018 C74.4600057,56.0255083 75.03,57.8304903 75.03,60.1305018 L75.03,60.5805018 Z M68.64,54.6405018 C67.3799937,54.6405018 66.3550039,55.020498 65.565,55.7805018 C64.774996,56.5405056 64.2700011,57.6104949 64.05,58.9905018 L72.84,58.9905018 C72.7199994,57.5704947 72.3050036,56.4905055 71.595,55.7505018 C70.8849964,55.0104981 69.9000063,54.6405018 68.64,54.6405018 Z M86.25,52.7505018 C89.8700181,52.7505018 91.68,54.7404819 91.68,58.7205018 L91.68,68.2005018 L89.25,68.2005018 L89.25,58.8405018 C89.25,57.4404948 88.9700028,56.415505 88.41,55.7655018 C87.8499972,55.1154985 86.970006,54.7905018 85.77,54.7905018 C84.369993,54.7905018 83.2500042,55.2204975 82.41,56.0805018 C81.5699958,56.9405061 81.15,58.1004945 81.15,59.5605018 L81.15,68.2005018 L78.72,68.2005018 L78.72,57.3405018 C78.72,55.780494 78.6400008,54.3705081 78.48,53.1105018 L80.79,53.1105018 L81.03,55.8105018 C81.4900023,54.8304969 82.1799954,54.0755044 83.1,53.5455018 C84.0200046,53.0154991 85.0699941,52.7505018 86.25,52.7505018 Z M99.51,55.0305018 L99.51,63.2805018 C99.51,64.4005074 99.7399977,65.1854995 100.2,65.6355018 C100.660002,66.085504 101.309996,66.3105018 102.15,66.3105018 C102.710003,66.3105018 103.249997,66.2205027 103.77,66.0405018 L103.77,68.1105018 C103.149997,68.3105028 102.450004,68.4105018 101.67,68.4105018 C100.229993,68.4105018 99.105004,68.0055058 98.295,67.1955018 C97.4849959,66.3854977 97.08,65.1905097 97.08,63.6105018 L97.08,55.0305018 L94.14,55.0305018 L94.14,53.1105018 L97.08,53.1105018 L97.08,49.2405018 L99.51,48.3705018 L99.51,53.1105018 L103.83,53.1105018 L103.83,55.0305018 L99.51,55.0305018 Z M114.6,68.2005018 L114.6,53.1105018 L117.03,53.1105018 L117.03,68.2005018 L114.6,68.2005018 Z M114.36,46.7205018 L117.33,46.7205018 L117.33,49.4805018 L114.36,49.4805018 L114.36,46.7205018 Z M129.27,52.7505018 C132.890018,52.7505018 134.7,54.7404819 134.7,58.7205018 L134.7,68.2005018 L132.27,68.2005018 L132.27,58.8405018 C132.27,57.4404948 131.990003,56.415505 131.43,55.7655018 C130.869997,55.1154985 129.990006,54.7905018 128.79,54.7905018 C127.389993,54.7905018 126.270004,55.2204975 125.43,56.0805018 C124.589996,56.9405061 124.17,58.1004945 124.17,59.5605018 L124.17,68.2005018 L121.74,68.2005018 L121.74,57.3405018 C121.74,55.780494 121.660001,54.3705081 121.5,53.1105018 L123.81,53.1105018 L124.05,55.8105018 C124.510002,54.8304969 125.199995,54.0755044 126.12,53.5455018 C127.040005,53.0154991 128.089994,52.7505018 129.27,52.7505018 Z M142.53,55.0305018 L142.53,63.2805018 C142.53,64.4005074 142.759998,65.1854995 143.22,65.6355018 C143.680002,66.085504 144.329996,66.3105018 145.17,66.3105018 C145.730003,66.3105018 146.269997,66.2205027 146.79,66.0405018 L146.79,68.1105018 C146.169997,68.3105028 145.470004,68.4105018 144.69,68.4105018 C143.249993,68.4105018 142.125004,68.0055058 141.315,67.1955018 C140.504996,66.3854977 140.1,65.1905097 140.1,63.6105018 L140.1,55.0305018 L137.16,55.0305018 L137.16,53.1105018 L140.1,53.1105018 L140.1,49.2405018 L142.53,48.3705018 L142.53,53.1105018 L146.85,53.1105018 L146.85,55.0305018 L142.53,55.0305018 Z M156.03,68.4105018 C154.609993,68.4105018 153.360005,68.090505 152.28,67.4505018 C151.199995,66.8104986 150.365003,65.9005077 149.775,64.7205018 C149.184997,63.5404959 148.89,62.1605097 148.89,60.5805018 C148.89,59.0004939 149.184997,57.6205077 149.775,56.4405018 C150.365003,55.2604959 151.199995,54.350505 152.28,53.7105018 C153.360005,53.0704986 154.609993,52.7505018 156.03,52.7505018 C157.450007,52.7505018 158.699995,53.0704986 159.78,53.7105018 C160.860005,54.350505 161.694997,55.2604959 162.285,56.4405018 C162.875003,57.6205077 163.17,59.0004939 163.17,60.5805018 C163.17,62.1605097 162.875003,63.5404959 162.285,64.7205018 C161.694997,65.9005077 160.860005,66.8104986 159.78,67.4505018 C158.699995,68.090505 157.450007,68.4105018 156.03,68.4105018 Z M156.03,66.4005018 C157.530008,66.4005018 158.679996,65.9055067 159.48,64.9155018 C160.280004,63.9254968 160.68,62.4805113 160.68,60.5805018 C160.68,58.7404926 160.270004,57.3155068 159.45,56.3055018 C158.629996,55.2954967 157.490007,54.7905018 156.03,54.7905018 C154.549993,54.7905018 153.400004,55.2954967 152.58,56.3055018 C151.759996,57.3155068 151.35,58.7404926 151.35,60.5805018 C151.35,62.4805113 151.754996,63.9254968 152.565,64.9155018 C153.375004,65.9055067 154.529992,66.4005018 156.03,66.4005018 Z M8.67,106.410502 C7.2099927,106.410502 5.93500545,106.090505 4.845,105.450502 C3.75499455,104.810499 2.91500295,103.905508 2.325,102.735502 C1.73499705,101.565496 1.44,100.20051 1.44,98.6405018 C1.44,97.080494 1.739997,95.7055077 2.34,94.5155018 C2.940003,93.3254958 3.79499445,92.4005051 4.905,91.7405018 C6.01500555,91.0804985 7.3099926,90.7505018 8.79,90.7505018 C9.8100051,90.7505018 10.7949952,90.9255 11.745,91.2755018 C12.6950047,91.6255035 13.4799969,92.1104987 14.1,92.7305018 L13.29,94.5305018 C12.5299962,93.9304988 11.7950036,93.4905032 11.085,93.2105018 C10.3749964,92.9305004 9.6500037,92.7905018 8.91,92.7905018 C7.3699923,92.7905018 6.1600044,93.3054966 5.28,94.3355018 C4.3999956,95.3655069 3.96,96.8004926 3.96,98.6405018 C3.96,100.460511 4.39499565,101.875497 5.265,102.885502 C6.13500435,103.895507 7.3499922,104.400502 8.91,104.400502 C9.6500037,104.400502 10.3749964,104.260503 11.085,103.980502 C11.7950036,103.7005 12.5299962,103.260505 13.29,102.660502 L14.1,104.460502 C13.4599968,105.060505 12.6550048,105.5355 11.685,105.885502 C10.7149952,106.235504 9.7100052,106.410502 8.67,106.410502 Z M30.48,91.1105018 L30.48,106.200502 L28.08,106.200502 L28.08,103.470502 C27.6399978,104.410506 26.9750044,105.135499 26.085,105.645502 C25.1949955,106.155504 24.1600059,106.410502 22.98,106.410502 C21.6399933,106.410502 20.465005,106.090505 19.455,105.450502 C18.4449949,104.810499 17.6650027,103.905508 17.115,102.735502 C16.5649973,101.565496 16.29,100.20051 16.29,98.6405018 C16.29,97.080494 16.5699972,95.7055077 17.13,94.5155018 C17.6900028,93.3254958 18.4749949,92.4005051 19.485,91.7405018 C20.495005,91.0804985 21.6599934,90.7505018 22.98,90.7505018 C24.1600059,90.7505018 25.1899956,91.0104992 26.07,91.5305018 C26.9500044,92.0505044 27.6199977,92.7804971 28.08,93.7205018 L28.08,91.1105018 L30.48,91.1105018 Z M23.46,104.400502 C24.9400074,104.400502 26.079996,103.895507 26.88,102.885502 C27.680004,101.875497 28.08,100.440511 28.08,98.5805018 C28.08,96.7204925 27.680004,95.2905068 26.88,94.2905018 C26.079996,93.2904968 24.9400074,92.7905018 23.46,92.7905018 C21.9799926,92.7905018 20.8250041,93.3054966 19.995,94.3355018 C19.1649959,95.3655069 18.75,96.8004926 18.75,98.6405018 C18.75,100.480511 19.1599959,101.900497 19.98,102.900502 C20.8000041,103.900507 21.9599925,104.400502 23.46,104.400502 Z M38.43,93.0305018 L38.43,101.280502 C38.43,102.400507 38.6599977,103.1855 39.12,103.635502 C39.5800023,104.085504 40.2299958,104.310502 41.07,104.310502 C41.6300028,104.310502 42.1699974,104.220503 42.69,104.040502 L42.69,106.110502 C42.0699969,106.310503 41.3700039,106.410502 40.59,106.410502 C39.1499928,106.410502 38.0250041,106.005506 37.215,105.195502 C36.4049959,104.385498 36,103.19051 36,101.610502 L36,93.0305018 L33.06,93.0305018 L33.06,91.1105018 L36,91.1105018 L36,87.2405018 L38.43,86.3705018 L38.43,91.1105018 L42.75,91.1105018 L42.75,93.0305018 L38.43,93.0305018 Z M58.32,98.5805018 L47.25,98.5805018 C47.2700001,100.500511 47.7149957,101.950497 48.585,102.930502 C49.4550044,103.910507 50.7199917,104.400502 52.38,104.400502 C54.1400088,104.400502 55.7599926,103.810508 57.24,102.630502 L58.05,104.400502 C57.3899967,105.020505 56.5450051,105.5105 55.515,105.870502 C54.4849948,106.230504 53.4300054,106.410502 52.35,106.410502 C49.9899882,106.410502 48.1400067,105.715509 46.8,104.325502 C45.4599933,102.935495 44.79,101.030514 44.79,98.6105018 C44.79,97.0704941 45.089997,95.7055077 45.69,94.5155018 C46.290003,93.3254958 47.1299946,92.4005051 48.21,91.7405018 C49.2900054,91.0804985 50.5199931,90.7505018 51.9,90.7505018 C53.90001,90.7505018 55.4699943,91.4054952 56.61,92.7155018 C57.7500057,94.0255083 58.32,95.8304903 58.32,98.1305018 L58.32,98.5805018 Z M51.93,92.6405018 C50.6699937,92.6405018 49.645004,93.020498 48.855,93.7805018 C48.0649961,94.5405056 47.5600011,95.6104949 47.34,96.9905018 L56.13,96.9905018 C56.0099994,95.5704947 55.5950036,94.4905055 54.885,93.7505018 C54.1749964,93.0104981 53.1900063,92.6405018 51.93,92.6405018 Z M75.45,91.1105018 L75.45,106.080502 C75.45,108.320513 74.8750057,110.015496 73.725,111.165502 C72.5749943,112.315508 70.8800112,112.890502 68.64,112.890502 C66.3399885,112.890502 64.3600083,112.370507 62.7,111.330502 L63.12,109.350502 C64.0800048,109.890504 64.9849957,110.280501 65.835,110.520502 C66.6850043,110.760503 67.6199949,110.880502 68.64,110.880502 C70.1000073,110.880502 71.1999963,110.495506 71.94,109.725502 C72.6800037,108.955498 73.05,107.810509 73.05,106.290502 L73.05,102.720502 C72.5899977,103.680507 71.9150044,104.425499 71.025,104.955502 C70.1349955,105.485504 69.0800061,105.750502 67.86,105.750502 C66.5399934,105.750502 65.3650052,105.440505 64.335,104.820502 C63.3049948,104.200499 62.5100028,103.320507 61.95,102.180502 C61.3899972,101.040496 61.11,99.7305092 61.11,98.2505018 C61.11,96.7704944 61.3899972,95.4605075 61.95,94.3205018 C62.5100028,93.1804961 63.3049948,92.3005049 64.335,91.6805018 C65.3650052,91.0604987 66.5399934,90.7505018 67.86,90.7505018 C69.060006,90.7505018 70.1049955,91.0104992 70.995,91.5305018 C71.8850044,92.0505044 72.5599977,92.7804971 73.02,93.7205018 L73.02,91.1105018 L75.45,91.1105018 Z M68.34,103.710502 C69.8000073,103.710502 70.9449958,103.225507 71.775,102.255502 C72.6050042,101.285497 73.02,99.9505103 73.02,98.2505018 C73.02,96.5504933 72.6050042,95.2155066 71.775,94.2455018 C70.9449958,93.2754969 69.8000073,92.7905018 68.34,92.7905018 C66.8599926,92.7905018 65.6950043,93.2754969 64.845,94.2455018 C63.9949958,95.2155066 63.57,96.5504933 63.57,98.2505018 C63.57,99.9505103 63.9949958,101.285497 64.845,102.255502 C65.6950043,103.225507 66.8599926,103.710502 68.34,103.710502 Z M86.37,106.410502 C84.9499929,106.410502 83.7000054,106.090505 82.62,105.450502 C81.5399946,104.810499 80.705003,103.900508 80.115,102.720502 C79.5249971,101.540496 79.23,100.16051 79.23,98.5805018 C79.23,97.0004939 79.5249971,95.6205077 80.115,94.4405018 C80.705003,93.2604959 81.5399946,92.350505 82.62,91.7105018 C83.7000054,91.0704986 84.9499929,90.7505018 86.37,90.7505018 C87.7900071,90.7505018 89.0399946,91.0704986 90.12,91.7105018 C91.2000054,92.350505 92.0349971,93.2604959 92.625,94.4405018 C93.2150029,95.6205077 93.51,97.0004939 93.51,98.5805018 C93.51,100.16051 93.2150029,101.540496 92.625,102.720502 C92.0349971,103.900508 91.2000054,104.810499 90.12,105.450502 C89.0399946,106.090505 87.7900071,106.410502 86.37,106.410502 Z M86.37,104.400502 C87.8700075,104.400502 89.019996,103.905507 89.82,102.915502 C90.620004,101.925497 91.02,100.480511 91.02,98.5805018 C91.02,96.7404926 90.6100041,95.3155068 89.79,94.3055018 C88.9699959,93.2954967 87.8300073,92.7905018 86.37,92.7905018 C84.8899926,92.7905018 83.7400041,93.2954967 82.92,94.3055018 C82.0999959,95.3155068 81.69,96.7404926 81.69,98.5805018 C81.69,100.480511 82.094996,101.925497 82.905,102.915502 C83.7150041,103.905507 84.8699925,104.400502 86.37,104.400502 Z M104.31,90.7505018 C104.810003,90.7505018 105.269998,90.8105012 105.69,90.9305018 L105.63,93.1505018 C105.169998,92.990501 104.640003,92.9105018 104.04,92.9105018 C102.579993,92.9105018 101.495004,93.3654972 100.785,94.2755018 C100.074996,95.1855063 99.72,96.2904953 99.72,97.5905018 L99.72,106.200502 L97.29,106.200502 L97.29,95.3405018 C97.29,93.780494 97.2100008,92.3705081 97.05,91.1105018 L99.36,91.1105018 L99.6,93.9005018 C99.9800019,92.8804967 100.589996,92.1005045 101.43,91.5605018 C102.270004,91.0204991 103.229995,90.7505018 104.31,90.7505018 Z M108.15,106.200502 L108.15,91.1105018 L110.58,91.1105018 L110.58,106.200502 L108.15,106.200502 Z M107.91,84.7205018 L110.88,84.7205018 L110.88,87.4805018 L107.91,87.4805018 L107.91,84.7205018 Z M127.92,98.5805018 L116.85,98.5805018 C116.87,100.500511 117.314996,101.950497 118.185,102.930502 C119.055004,103.910507 120.319992,104.400502 121.98,104.400502 C123.740009,104.400502 125.359993,103.810508 126.84,102.630502 L127.65,104.400502 C126.989997,105.020505 126.145005,105.5105 125.115,105.870502 C124.084995,106.230504 123.030005,106.410502 121.95,106.410502 C119.589988,106.410502 117.740007,105.715509 116.4,104.325502 C115.059993,102.935495 114.39,101.030514 114.39,98.6105018 C114.39,97.0704941 114.689997,95.7055077 115.29,94.5155018 C115.890003,93.3254958 116.729995,92.4005051 117.81,91.7405018 C118.890005,91.0804985 120.119993,90.7505018 121.5,90.7505018 C123.50001,90.7505018 125.069994,91.4054952 126.21,92.7155018 C127.350006,94.0255083 127.92,95.8304903 127.92,98.1305018 L127.92,98.5805018 Z M121.53,92.6405018 C120.269994,92.6405018 119.245004,93.020498 118.455,93.7805018 C117.664996,94.5405056 117.160001,95.6104949 116.94,96.9905018 L125.73,96.9905018 C125.609999,95.5704947 125.195004,94.4905055 124.485,93.7505018 C123.774996,93.0104981 122.790006,92.6405018 121.53,92.6405018 Z M136.71,106.410502 C134.169987,106.410502 132.160007,105.760508 130.68,104.460502 L131.49,102.660502 C132.310004,103.300505 133.139996,103.7605 133.98,104.040502 C134.820004,104.320503 135.759995,104.460502 136.8,104.460502 C137.940006,104.460502 138.804997,104.265504 139.395,103.875502 C139.985003,103.4855 140.28,102.920505 140.28,102.180502 C140.28,101.580499 140.080002,101.100504 139.68,100.740502 C139.279998,100.3805 138.620005,100.100503 137.7,99.9005018 L135.15,99.3005018 C133.889994,99.0205004 132.915003,98.5205054 132.225,97.8005018 C131.534997,97.0804982 131.19,96.2205068 131.19,95.2205018 C131.19,93.9004952 131.719995,92.8255059 132.78,91.9955018 C133.840005,91.1654976 135.239991,90.7505018 136.98,90.7505018 C138.040005,90.7505018 139.039995,90.9205001 139.98,91.2605018 C140.920005,91.6005035 141.709997,92.0904986 142.35,92.7305018 L141.54,94.5005018 C140.119993,93.3204959 138.600008,92.7305018 136.98,92.7305018 C135.899995,92.7305018 135.065003,92.9354997 134.475,93.3455018 C133.884997,93.7555038 133.59,94.3304981 133.59,95.0705018 C133.59,95.6905049 133.774998,96.1805 134.145,96.5405018 C134.515002,96.9005036 135.109996,97.1805008 135.93,97.3805018 L138.48,98.0105018 C139.880007,98.3305034 140.919997,98.8254984 141.6,99.4955018 C142.280003,100.165505 142.62,101.040496 142.62,102.120502 C142.62,103.420508 142.090005,104.460498 141.03,105.240502 C139.969995,106.020506 138.530009,106.410502 136.71,106.410502 Z M146.07,103.110502 L149.16,103.110502 L149.16,106.200502 L146.07,106.200502 L146.07,103.110502 Z" id="Putmysavedcontentintocategories."></path>
                    </g>
                </g>
            </g>
        </g>
    </g>
</svg>