<?xml version="1.0" encoding="UTF-8"?>
<svg width="155px" height="153px" viewBox="0 0 155 153" version="1.1" xmlns="http://www.w3.org/2000/svg" xmlns:xlink="http://www.w3.org/1999/xlink">
    <!-- Generator: Sketch 55.2 (78181) - https://sketchapp.com -->
    <title>tada-logo</title>
    <desc>Created with Sketch.</desc>
    <g id="Logos" stroke="none" stroke-width="1" fill="none" fill-rule="evenodd">
        <g id="tada-logo" transform="translate(3.000000, 0.000000)">
            <path d="M110.837,88.144 C92.157,93.15 77.827,88.214 72.157,85.938 C75.847,81.141 85.907,69.795 104.577,64.791 C114.697,62.079 122.517,62.021 128.857,62.985 C134.067,63.778 138.287,65.26 142.067,66.584 C142.407,66.703 142.737,66.821 143.067,66.936 C142.687,67.374 142.297,67.82 141.897,68.273 C139.357,71.192 136.547,74.405 132.677,77.539 C127.697,81.56 120.957,85.433 110.837,88.144 Z" id="Path" stroke="#33DBB9" stroke-width="2" fill="#FFFFFF"></path>
            <path d="M112.737,98.056 C94.607,98.056 82.397,93.874 76.857,91.624 C82.357,89.374 94.627,85.259 112.737,85.259 C131.557,85.259 141.097,88.824 148.347,91.622 C148.277,91.649 148.207,91.676 148.127,91.703 C140.787,94.493 131.417,98.056 112.737,98.056 Z" id="Path" stroke="#33DBB9" stroke-width="2" fill="#FFFFFF"></path>
            <path d="M33.933,89.188 C52.614,94.194 66.947,89.257 72.617,86.982 C68.917,82.185 58.868,70.839 40.19,65.834 C30.07,63.123 22.254,63.065 15.917,64.028 C10.7,64.822 6.48,66.303 2.707,67.628 C2.369,67.747 2.034,67.864 1.702,67.98 C2.088,68.418 2.477,68.864 2.872,69.317 C5.418,72.235 8.221,75.449 12.098,78.582 C17.074,82.604 23.815,86.477 33.933,89.188 Z" id="Path" stroke="#33DBB9" stroke-width="2" fill="#FFFFFF"></path>
            <path d="M98.367,58.62 C94.207,74.147 84.537,82.425 80.337,85.639 C78.277,80.815 74.157,68.772 78.317,53.248 C80.597,44.747 83.887,39.057 87.307,34.877 C90.127,31.433 93.037,29.008 95.647,26.829 C95.837,26.671 96.027,26.514 96.217,26.358 C96.367,26.775 96.517,27.197 96.667,27.624 C97.777,30.724 98.997,34.121 99.707,38.268 C100.607,43.585 100.647,50.122 98.367,58.62 Z" id="Path" stroke="#33DBB9" stroke-width="2" fill="#FFFFFF"></path>
            <path d="M50.407,59.408 C54.567,74.935 64.237,83.213 68.437,86.427 C70.497,81.603 74.617,69.56 70.457,54.036 C68.177,45.535 64.887,39.845 61.466,35.665 C58.646,32.222 55.736,29.796 53.122,27.617 C52.932,27.459 52.744,27.302 52.557,27.146 C52.41,27.563 52.258,27.985 52.105,28.412 C50.992,31.512 49.773,34.909 49.071,39.056 C48.17,44.373 48.13,50.91 50.407,59.408 Z" id="Path" stroke="#33DBB9" stroke-width="2" fill="#FFFFFF"></path>
            <path d="M40.235,74.079 C53.952,87.796 69.117,90.427 75.217,91.182 C74.527,85.124 71.747,69.993 58.037,56.277 C50.632,48.873 43.843,44.97 37.806,42.706 C32.836,40.842 28.374,40.083 24.383,39.405 C24.001,39.34 23.622,39.275 23.248,39.211 C23.36,39.815 23.469,40.428 23.58,41.052 C24.267,44.911 25.023,49.158 26.76,53.864 C28.987,59.901 32.833,66.676 40.235,74.079 Z" id="Path" stroke="#33DBB9" stroke-width="2" fill="#FFFFFF"></path>
            <path d="M107.577,74.079 C93.857,87.796 78.697,90.427 72.587,91.182 C73.277,85.124 76.057,69.993 89.767,56.277 C97.177,48.873 103.967,44.97 109.997,42.706 C114.967,40.842 119.437,40.083 123.427,39.405 C123.807,39.34 124.187,39.275 124.557,39.211 C124.447,39.815 124.337,40.428 124.227,41.052 C123.537,44.911 122.787,49.158 121.047,53.864 C118.817,59.901 114.977,66.676 107.577,74.079 Z" id="Path" stroke="#33DBB9" stroke-width="2" fill="#FFFFFF"></path>
            <path d="M35.881,98.056 C17.752,98.056 5.545,93.874 0,91.624 C5.501,89.374 17.771,85.259 35.881,85.259 C54.702,85.259 64.237,88.824 71.487,91.622 C71.417,91.649 71.347,91.676 71.277,91.703 C63.933,94.493 54.556,98.056 35.881,98.056 Z" id="Path" stroke="#33DBB9" stroke-width="2" fill="#FFFFFF"></path>
            <path d="M82.327,32.181 C83.027,42.045 81.107,41.184 74.277,41.184 C67.457,41.184 65.727,42.045 66.237,32.181 C67.577,22.412 71.987,4.789 74.277,0 C76.387,4.597 80.987,22.795 82.327,32.181 Z" id="Path" fill="#33DBB9"></path>
            <path d="M77.767,24.963 C78.067,30.528 77.237,30.043 74.297,30.043 C71.357,30.043 70.607,30.528 70.827,24.963 C71.407,19.451 73.307,9.508 74.297,6.806 C75.207,9.4 77.187,19.667 77.767,24.963 Z" id="Path" fill="#FFFFFF"></path>
            <path d="M66.287,67.633 C65.587,59.11 67.517,59.853 74.337,59.853 C81.167,59.853 82.897,59.11 82.377,67.633 C81.037,76.075 78.087,92.034 74.337,95.441 C71.957,97.603 67.627,75.744 66.287,67.633 Z" id="Path" fill="#33DBB9"></path>
            <path d="M66.757,39.339 L81.867,39.339 L80.077,49.592 C79.867,50.807 79.877,52.052 80.127,53.261 L81.867,62.003 L66.757,62.003 L68.437,51.431 L66.757,39.339 Z" id="Path" fill="#33DBB9"></path>
            <polygon id="Path" fill="#FFFFFF" points="75.017 80.432 75.017 89.194 74.327 90.108 74.327 90.167 74.307 90.138 74.287 90.167 74.287 90.108 73.597 89.194 73.597 80.432 73.307 79.118 73.007 77.804 73.597 74.915 73.597 68.443 74.287 65.074 74.287 64.855 74.307 64.964 74.327 64.855 74.327 65.074 75.017 68.443 75.017 74.915 75.607 77.804 75.317 79.118"></polygon>
            <path d="M27.652,152.406 L26.464,152.406 C23.464,152.406 21.308,151.115 19.995,148.531 C18.912,146.427 18.37,142.969 18.37,138.156 C18.37,133.344 18.11,130.042 17.589,128.25 C17.402,127.584 16.881,126.823 16.027,125.969 C15.172,125.115 14.745,124.375 14.745,123.75 L14.745,123.344 C14.745,122.802 15.235,122.209 16.214,121.563 C17.193,120.917 17.756,120.459 17.902,120.188 C18.068,119.896 18.381,118.886 18.839,117.156 C19.318,115.406 19.808,114.188 20.308,113.5 C20.829,112.792 21.516,112.438 22.37,112.438 C23.245,112.438 23.86,112.688 24.214,113.188 C24.589,113.688 24.954,114.719 25.308,116.281 C25.683,117.844 26.089,118.906 26.527,119.469 C26.964,120.011 28.027,120.584 29.714,121.188 C31.402,121.792 32.245,122.542 32.245,123.438 C32.245,124.229 31.36,124.938 29.589,125.563 C27.839,126.188 26.735,126.959 26.277,127.875 C25.402,129.646 24.964,132.781 24.964,137.281 C24.964,141.781 25.35,144.542 26.12,145.563 C26.891,146.563 28.141,147.177 29.87,147.406 C31.62,147.636 32.495,148.292 32.495,149.375 C32.495,150.209 31.995,150.927 30.995,151.531 C30.016,152.115 28.902,152.406 27.652,152.406 Z M49.277,148.594 L50.245,148.594 C52.183,148.594 53.891,147.761 55.37,146.094 C56.183,145.177 56.589,143.469 56.589,140.969 L56.62,140.563 L56.62,139.781 C56.62,138.219 55.975,137.438 54.683,137.438 L53.683,137.438 L52.058,137.563 L51.214,137.656 C49.297,137.656 47.725,138.198 46.495,139.281 C45.266,140.344 44.652,141.615 44.652,143.094 L44.652,144.188 C44.652,145.313 45.047,146.334 45.839,147.25 C46.652,148.146 47.797,148.594 49.277,148.594 Z M65.087,150.094 C65.087,151.49 63.683,152.188 60.87,152.188 C60.37,152.188 59.454,151.938 58.12,151.438 C56.808,150.917 55.975,150.656 55.62,150.656 C55.287,150.656 54.162,151.021 52.245,151.75 C50.329,152.459 48.641,152.813 47.183,152.813 L46.464,152.813 C44.193,152.813 42.235,152.073 40.589,150.594 C38.943,149.094 38.12,147.052 38.12,144.469 C38.12,139.219 41.443,135.948 48.089,134.656 C52.402,133.802 54.631,133.344 54.777,133.281 C55.797,132.761 56.308,131.823 56.308,130.469 C56.308,129.094 55.87,127.948 54.995,127.031 C54.141,126.094 52.964,125.625 51.464,125.625 C49.985,125.625 48.235,126.136 46.214,127.156 C44.193,128.156 42.808,128.656 42.058,128.656 C40.704,128.656 40.027,127.729 40.027,125.875 C40.027,124.709 41.089,123.604 43.214,122.563 C45.36,121.521 47.797,121 50.527,121 L52.089,121 C54.131,121 55.943,121.386 57.527,122.156 C59.11,122.927 60.318,123.969 61.152,125.281 C62.339,127.136 62.933,131.375 62.933,138 C62.933,141.75 63.006,144.084 63.152,145 C63.318,145.917 63.683,146.844 64.247,147.781 C64.807,148.698 65.087,149.469 65.087,150.094 Z M91.717,131.563 C91.717,129.729 91.257,128.24 90.337,127.094 C89.447,125.948 87.957,125.375 85.867,125.375 L85.587,125.375 L85.277,125.406 C83.107,125.406 81.317,126.438 79.897,128.5 C78.507,130.542 77.807,133.365 77.807,136.969 L77.807,138.406 C77.807,141.636 78.447,144.125 79.717,145.875 C81.007,147.625 82.587,148.5 84.467,148.5 L84.747,148.5 C86.937,148.5 88.627,147.74 89.837,146.219 C91.047,144.698 91.647,142.521 91.647,139.688 C91.697,139.229 91.717,138.896 91.717,138.688 L91.807,136.719 L91.807,133.156 L91.747,132.188 C91.727,131.979 91.717,131.771 91.717,131.563 Z M86.307,121.594 C88.597,121.594 89.977,121.313 90.437,120.75 C91.137,119.875 91.497,118.011 91.497,115.156 C91.497,114.302 91.397,113.427 91.217,112.531 C91.027,111.615 90.937,111.011 90.937,110.719 C90.937,109.781 91.287,108.99 91.997,108.344 C92.707,107.698 93.737,107.375 95.087,107.375 L95.687,107.375 C97.327,107.375 98.277,108.115 98.527,109.594 C98.717,110.656 98.807,116.5 98.807,127.125 L98.747,130.875 L98.747,136.094 L98.807,138.969 C98.807,139.448 98.807,139.927 98.807,140.406 L98.837,141.094 C98.857,141.552 98.867,142.386 98.867,143.594 C98.867,144.781 99.037,145.948 99.367,147.094 C99.727,148.219 99.897,149.011 99.897,149.469 C99.897,149.927 99.637,150.375 99.117,150.813 C98.597,151.25 97.827,151.469 96.807,151.469 C95.807,151.469 94.777,151.334 93.717,151.063 C92.677,150.771 91.957,150.625 91.557,150.625 C91.167,150.625 90.077,150.927 88.307,151.531 C86.557,152.136 85.027,152.438 83.717,152.438 L83.027,152.438 C79.487,152.438 76.727,151.24 74.747,148.844 C72.787,146.427 71.807,143.271 71.807,139.375 L71.807,137.781 C71.807,135.74 72.127,133.698 72.777,131.656 C73.447,129.594 74.397,127.802 75.647,126.281 C78.257,123.156 81.807,121.594 86.307,121.594 Z M117.777,148.594 L118.747,148.594 C120.687,148.594 122.387,147.761 123.867,146.094 C124.687,145.177 125.087,143.469 125.087,140.969 L125.117,140.563 L125.117,139.781 C125.117,138.219 124.477,137.438 123.187,137.438 L122.187,137.438 L120.557,137.563 L119.717,137.656 C117.797,137.656 116.227,138.198 114.997,139.281 C113.767,140.344 113.147,141.615 113.147,143.094 L113.147,144.188 C113.147,145.313 113.547,146.334 114.337,147.25 C115.147,148.146 116.297,148.594 117.777,148.594 Z M133.587,150.094 C133.587,151.49 132.187,152.188 129.367,152.188 C128.867,152.188 127.957,151.938 126.617,151.438 C125.307,150.917 124.477,150.656 124.117,150.656 C123.787,150.656 122.667,151.021 120.747,151.75 C118.827,152.459 117.137,152.813 115.687,152.813 L114.967,152.813 C112.697,152.813 110.737,152.073 109.087,150.594 C107.447,149.094 106.617,147.052 106.617,144.469 C106.617,139.219 109.947,135.948 116.587,134.656 C120.897,133.802 123.127,133.344 123.277,133.281 C124.297,132.761 124.807,131.823 124.807,130.469 C124.807,129.094 124.367,127.948 123.497,127.031 C122.637,126.094 121.467,125.625 119.967,125.625 C118.487,125.625 116.737,126.136 114.717,127.156 C112.697,128.156 111.307,128.656 110.557,128.656 C109.207,128.656 108.527,127.729 108.527,125.875 C108.527,124.709 109.587,123.604 111.717,122.563 C113.857,121.521 116.297,121 119.027,121 L120.587,121 C122.627,121 124.447,121.386 126.027,122.156 C127.607,122.927 128.817,123.969 129.647,125.281 C130.837,127.136 131.437,131.375 131.437,138 C131.437,141.75 131.507,144.084 131.647,145 C131.817,145.917 132.187,146.844 132.747,147.781 C133.307,148.698 133.587,149.469 133.587,150.094 Z" id="Shape" fill="#33DBB9" fill-rule="nonzero"></path>
        </g>
    </g>
</svg>