<svg width="2173" height="441" viewBox="0 0 2173 441" fill="none" xmlns="http://www.w3.org/2000/svg">
<g clip-path="url(#clip0)">
<path d="M359.4 154.656L279.8 365.056H253L186.6 192.656L120.2 365.056H93.4L14.2 154.656H41.4L107.4 333.456L175 154.656H199.4L266.6 333.456L333.4 154.656H359.4ZM509.363 153.056C535.763 153.056 556.696 160.79 572.163 176.256C587.896 191.456 595.763 213.723 595.763 243.056V365.056H567.363V245.856C567.363 223.99 561.896 207.323 550.963 195.856C540.029 184.39 524.429 178.656 504.163 178.656C481.496 178.656 463.496 185.456 450.163 199.056C437.096 212.39 430.563 230.923 430.563 254.656V365.056H402.163V68.2564H430.563V191.456C438.296 179.19 448.963 169.723 462.562 163.056C476.163 156.39 491.763 153.056 509.363 153.056Z" fill="#052F5F"/>
<path d="M985.225 68.2564H1013.63V365.056H985.225V68.2564ZM1275.85 268.656H1099.85C1101.45 290.523 1109.85 308.256 1125.05 321.856C1140.25 335.19 1159.45 341.856 1182.65 341.856C1195.71 341.856 1207.71 339.59 1218.65 335.056C1229.58 330.256 1239.05 323.323 1247.05 314.256L1263.05 332.656C1253.71 343.856 1241.98 352.39 1227.85 358.256C1213.98 364.123 1198.65 367.056 1181.85 367.056C1160.25 367.056 1141.05 362.523 1124.25 353.456C1107.71 344.123 1094.78 331.323 1085.45 315.056C1076.11 298.79 1071.45 280.39 1071.45 259.856C1071.45 239.323 1075.85 220.923 1084.65 204.656C1093.71 188.39 1105.98 175.723 1121.45 166.656C1137.18 157.59 1154.78 153.056 1174.25 153.056C1193.71 153.056 1211.18 157.59 1226.65 166.656C1242.11 175.723 1254.25 188.39 1263.05 204.656C1271.85 220.656 1276.25 239.056 1276.25 259.856L1275.85 268.656ZM1174.25 177.456C1153.98 177.456 1136.91 183.99 1123.05 197.056C1109.45 209.856 1101.71 226.656 1099.85 247.456H1249.05C1247.18 226.656 1239.31 209.856 1225.45 197.056C1211.85 183.99 1194.78 177.456 1174.25 177.456ZM1390.45 367.056C1373.39 367.056 1356.99 364.656 1341.25 359.856C1325.79 354.79 1313.65 348.523 1304.85 341.056L1317.65 318.656C1326.45 325.59 1337.52 331.323 1350.85 335.856C1364.19 340.123 1378.05 342.256 1392.45 342.256C1411.65 342.256 1425.79 339.323 1434.85 333.456C1444.19 327.323 1448.85 318.79 1448.85 307.856C1448.85 300.123 1446.32 294.123 1441.25 289.856C1436.19 285.323 1429.79 281.99 1422.05 279.856C1414.32 277.456 1404.05 275.19 1391.25 273.056C1374.19 269.856 1360.45 266.656 1350.05 263.456C1339.65 259.99 1330.72 254.256 1323.25 246.256C1316.05 238.256 1312.45 227.19 1312.45 213.056C1312.45 195.456 1319.79 181.056 1334.45 169.856C1349.12 158.656 1369.52 153.056 1395.65 153.056C1409.25 153.056 1422.85 154.923 1436.45 158.656C1450.05 162.123 1461.25 166.79 1470.05 172.656L1457.65 195.456C1440.32 183.456 1419.65 177.456 1395.65 177.456C1377.52 177.456 1363.79 180.656 1354.45 187.056C1345.39 193.456 1340.85 201.856 1340.85 212.256C1340.85 220.256 1343.39 226.656 1348.45 231.456C1353.79 236.256 1360.32 239.856 1368.05 242.256C1375.79 244.39 1386.45 246.656 1400.05 249.056C1416.85 252.256 1430.32 255.456 1440.45 258.656C1450.59 261.856 1459.25 267.323 1466.45 275.056C1473.65 282.79 1477.25 293.456 1477.25 307.056C1477.25 325.456 1469.52 340.123 1454.05 351.056C1438.85 361.723 1417.65 367.056 1390.45 367.056ZM1719.36 154.656V365.056H1692.16V326.656C1684.69 339.456 1674.42 349.456 1661.36 356.656C1648.29 363.59 1633.36 367.056 1616.56 367.056C1589.09 367.056 1567.36 359.456 1551.36 344.256C1535.62 328.79 1527.76 306.256 1527.76 276.656V154.656H1556.16V273.856C1556.16 295.99 1561.62 312.79 1572.56 324.256C1583.49 335.723 1599.09 341.456 1619.36 341.456C1641.49 341.456 1658.96 334.79 1671.76 321.456C1684.56 307.856 1690.96 289.056 1690.96 265.056V154.656H1719.36ZM2061.3 153.056C2087.7 153.056 2108.36 160.656 2123.3 175.856C2138.5 191.056 2146.1 213.456 2146.1 243.056V365.056H2117.7V245.856C2117.7 223.99 2112.36 207.323 2101.7 195.856C2091.3 184.39 2076.5 178.656 2057.3 178.656C2035.43 178.656 2018.23 185.456 2005.7 199.056C1993.16 212.39 1986.9 230.923 1986.9 254.656V365.056H1958.5V245.856C1958.5 223.99 1953.16 207.323 1942.5 195.856C1932.1 184.39 1917.16 178.656 1897.7 178.656C1876.1 178.656 1858.9 185.456 1846.1 199.056C1833.56 212.39 1827.3 230.923 1827.3 254.656V365.056H1798.9V154.656H1826.1V193.056C1833.56 180.256 1843.96 170.39 1857.3 163.456C1870.63 156.523 1885.96 153.056 1903.3 153.056C1920.9 153.056 1936.1 156.79 1948.9 164.256C1961.96 171.723 1971.7 182.79 1978.1 197.456C1985.83 183.59 1996.9 172.79 2011.3 165.056C2025.96 157.056 2042.63 153.056 2061.3 153.056Z" fill="#052F5F"/>
<path d="M709.748 340.35L699.657 351.449L700.183 351.927L700.751 352.353L709.748 340.35ZM895.424 287.877L880.899 284.134L895.424 287.877ZM819.111 302.403C827.134 300.336 831.962 292.158 829.895 284.135C827.829 276.113 819.65 271.285 811.628 273.352L819.111 302.403ZM752.548 125.791C743.244 120.151 732.932 122.621 726.331 125.332C719.037 128.327 711.611 133.435 704.654 139.596C690.638 152.01 676.226 170.742 666.168 192.981C656.082 215.283 650.036 241.884 653.929 269.737C657.859 297.856 671.771 326.097 699.657 351.449L719.838 329.252C696.787 308.295 686.535 286.302 683.64 265.584C680.707 244.6 685.173 223.761 693.503 205.344C701.861 186.863 713.77 171.597 724.544 162.055C729.982 157.238 734.569 154.379 737.726 153.083C741.576 151.502 740.153 153.359 736.997 151.445L752.548 125.791ZM700.751 352.353C781.94 413.208 889.808 369.77 909.949 291.621L880.899 284.134C866.426 340.286 783.943 377.218 718.744 328.348L700.751 352.353ZM909.949 291.621C922.335 243.566 909.851 198.178 884.759 168.783C859.639 139.358 820.196 124.854 782.234 144.408L795.971 171.078C818.5 159.474 843.421 166.566 861.942 188.261C880.489 209.988 890.921 245.247 880.899 284.134L909.949 291.621ZM782.234 144.408C745.352 163.406 727.825 208.344 731.289 244.512C733.064 263.04 740.524 281.539 756.144 293.496C772.108 305.717 793.737 308.94 819.111 302.403L811.628 273.352C792.561 278.263 781.125 274.838 774.38 269.675C767.289 264.247 762.395 254.623 761.153 241.651C758.582 214.817 772.362 183.239 795.971 171.078L782.234 144.408Z" fill="#DC7C09"/>
<path d="M739.302 94.4653C758.824 118.365 755.254 135.348 753.251 155.22C737.009 150.632 716.025 153.325 696.503 129.425C676.98 105.525 665.224 65.853 666.727 50.9425C683.016 55.3739 719.78 70.5654 739.302 94.4653Z" fill="#42AD60"/>
</g>
<defs>
<clipPath id="clip0">
<rect width="2173" height="441" fill="white"/>
</clipPath>
</defs>
</svg>
